<svg width="209" height="48" viewBox="0 0 209 48" fill="none" xmlns="http://www.w3.org/2000/svg">
<rect width="48" height="48" rx="7.38462" fill="#17171C"/>
<path d="M14.8205 36.1994V32.7892H11.4103V25.9687H8V22.5584H11.4103V15.7379H14.8205V12.3276H21.641V15.7379H18.2308V22.5584H14.8205V25.9687H18.2308V32.7892H21.641V36.1994H14.8205Z" fill="#EAEAEA"/>
<path d="M22.872 36.2194L22.8718 12.3077L36.5129 12.3477V15.7579H39.9231V22.5784H36.5129V25.9887H39.9231V32.8092H36.5129V36.2194L22.872 36.2194ZM22.8718 22.5784H33.1026V15.7579H22.8718V22.5784ZM22.8718 32.8092H33.1026V25.9887H22.8718V32.8092Z" fill="#EAEAEA"/>
<path d="M58.5249 22.2919H61.9411V25.7081H58.5249V35.9569H51.6923V18.8756H58.5249V22.2919ZM72.1899 18.8756V22.2919H61.9411V18.8756H72.1899Z" fill="#17171C"/>
<path d="M79.0224 35.9569V32.5407H75.6062V29.1244H79.0224V25.7081H92.6875V22.2919H79.0224V18.8756H96.1038V22.2919H99.52V35.9569H79.0224ZM82.4387 32.5407H92.6875V29.1244H82.4387V32.5407Z" fill="#17171C"/>
<path d="M106.353 35.9569V32.5407H102.936V22.2919H106.353V18.8756H126.85V22.2919H109.769V32.5407H126.85V35.9569H106.353Z" fill="#17171C"/>
<path d="M130.266 35.9569V12.0431H137.099V25.7081H143.931V22.2919H147.348V18.8756H154.18V22.2919H150.764V25.7081H147.348V29.1244H150.764V32.5407H154.18V35.9569H147.348V32.5407H143.931V29.1244H137.099V35.9569H130.266Z" fill="#17171C"/>
<path d="M161.013 35.9569V32.5407H157.597V22.2919H161.013V18.8756H178.094V22.2919H181.51V29.1244H164.429V32.5407H178.094V35.9569H161.013ZM164.429 25.7081H174.678V22.2919H164.429V25.7081Z" fill="#17171C"/>
<path d="M195.175 35.9569V22.2919H188.343V18.8756H195.175V12.0431H202.008V18.8756H208.84V22.2919H202.008V35.9569H195.175Z" fill="#17171C"/>
</svg>
