<svg width="140" height="32" viewBox="0 0 140 32" fill="none" xmlns="http://www.w3.org/2000/svg">
<rect width="32" height="32" rx="4.92308" fill="#A8E6CF"/>
<path d="M9.88026 24.133V21.8595H7.60676V17.3125H5.33325V15.039H7.60676V10.492H9.88026V8.21851H14.4273V10.492H12.1538V15.039H9.88026V17.3125H12.1538V21.8595H14.4273V24.133H9.88026Z" fill="#17171C"/>
<path d="M15.2479 24.1463L15.2478 8.2052L24.3418 8.23181V10.5053H26.6153V15.0523H24.3418V17.3258H26.6153V21.8728H24.3418V24.1463L15.2479 24.1463ZM15.2478 15.0523H22.0683V10.5053H15.2478V15.0523ZM15.2478 21.8728H22.0683V17.3258H15.2478V21.8728Z" fill="#17171C"/>
<path d="M39.0164 14.8612H41.294V17.1387H39.0164V23.9713H34.4614V12.5837H39.0164V14.8612ZM48.1265 12.5837V14.8612H41.294V12.5837H48.1265Z" fill="white"/>
<path d="M52.6815 23.9713V21.6937H50.404V19.4162H52.6815V17.1387H61.7915V14.8612H52.6815V12.5837H64.069V14.8612H66.3466V23.9713H52.6815ZM54.959 21.6937H61.7915V19.4162H54.959V21.6937Z" fill="white"/>
<path d="M70.9016 23.9713V21.6937H68.6241V14.8612H70.9016V12.5837H84.5666V14.8612H73.1791V21.6937H84.5666V23.9713H70.9016Z" fill="white"/>
<path d="M86.8441 23.9713V8.02869H91.3992V17.1387H95.9542V14.8612H98.2317V12.5837H102.787V14.8612H100.509V17.1387H98.2317V19.4162H100.509V21.6937H102.787V23.9713H98.2317V21.6937H95.9542V19.4162H91.3992V23.9713H86.8441Z" fill="white"/>
<path d="M107.342 23.9713V21.6937H105.064V14.8612H107.342V12.5837H118.729V14.8612H121.007V19.4162H109.619V21.6937H118.729V23.9713H107.342ZM109.619 17.1387H116.452V14.8612H109.619V17.1387Z" fill="white"/>
<path d="M130.117 23.9713V14.8612H125.562V12.5837H130.117V8.02869H134.672V12.5837H139.227V14.8612H134.672V23.9713H130.117Z" fill="white"/>
</svg>
