<svg width="83" height="83" viewBox="0 0 83 83" fill="none" xmlns="http://www.w3.org/2000/svg">
<path d="M38.8102 38.8479H27.292V56.508H38.8102V38.8479Z" fill="#F5B700"/>
<path d="M48.2786 54.1245H46.1746V56.2285H48.2786V54.1245Z" fill="#EAEAEA"/>
<path d="M50.3827 54.1245H48.2787V56.2285H50.3827V54.1245Z" fill="#0F0F12"/>
<path d="M48.2786 45.7083H46.1746V47.8123H48.2786V45.7083Z" fill="#EAEAEA"/>
<path d="M46.1745 47.8123H44.0704V49.9163H46.1745V47.8123Z" fill="#EAEAEA"/>
<path d="M50.3827 47.8123H48.2787V49.9163H50.3827V47.8123Z" fill="#EAEAEA"/>
<path d="M50.3827 49.9164H48.2787V52.0204H50.3827V49.9164Z" fill="#0F0F12"/>
<path d="M52.4867 45.7083H50.3827V47.8123H52.4867V45.7083Z" fill="#EAEAEA"/>
<path d="M54.5907 45.7083H52.4867V47.8123H54.5907V45.7083Z" fill="#EAEAEA"/>
<path d="M56.6947 45.7083H54.5907V47.8123H56.6947V45.7083Z" fill="#EAEAEA"/>
<path d="M54.5907 47.8123H52.4867V49.9163H54.5907V47.8123Z" fill="#EAEAEA"/>
<path d="M56.6947 47.8123H54.5907V49.9163H56.6947V47.8123Z" fill="#EAEAEA"/>
<path d="M54.5907 49.9164H52.4867V52.0204H54.5907V49.9164Z" fill="#0F0F12"/>
<path d="M56.6947 49.9164H54.5907V52.0204H56.6947V49.9164Z" fill="#EAEAEA"/>
<path d="M54.5907 52.0204H52.4867V54.1244H54.5907V52.0204Z" fill="#EAEAEA"/>
<path d="M52.4867 54.1245H50.3827V56.2285H52.4867V54.1245Z" fill="#EAEAEA"/>
<path d="M54.5907 54.1245H52.4867V56.2285H54.5907V54.1245Z" fill="#EAEAEA"/>
<path d="M56.6947 54.1245H54.5907V56.2285H56.6947V54.1245Z" fill="#EAEAEA"/>
<path d="M56.6947 52.0204H54.5907V54.1244H56.6947V52.0204Z" fill="#EAEAEA"/>
<path d="M58.7988 52.0204H56.6947V54.1244H58.7988V52.0204Z" fill="#EAEAEA"/>
<path d="M58.7988 49.9164H56.6947V52.0204H58.7988V49.9164Z" fill="#EAEAEA"/>
<path d="M58.7988 47.8123H56.6947V49.9163H58.7988V47.8123Z" fill="#EAEAEA"/>
<path d="M58.7988 45.7083H56.6947V47.8123H58.7988V45.7083Z" fill="#EAEAEA"/>
<path d="M8.35552 28.8759H6.25146V30.9799H8.35552V28.8759Z" fill="#EAEAEA"/>
<path d="M10.4598 26.7718H8.35571V28.8758H10.4598V26.7718Z" fill="#EAEAEA"/>
<path d="M12.5638 26.7718H10.4597V28.8758H12.5638V26.7718Z" fill="#EAEAEA"/>
<path d="M12.5638 28.8759H10.4597V30.9799H12.5638V28.8759Z" fill="#EAEAEA"/>
<path d="M10.4598 28.8759H8.35571V30.9799H10.4598V28.8759Z" fill="#EAEAEA"/>
<path d="M10.4598 30.9799H8.35571V33.0839H10.4598V30.9799Z" fill="#EAEAEA"/>
<path d="M8.35552 30.9799H6.25146V33.0839H8.35552V30.9799Z" fill="#F5B700"/>
<path d="M8.35552 33.084H6.25146V35.188H8.35552V33.084Z" fill="#9B8500"/>
<path d="M6.25151 35.188H4.14746V37.292H6.25151V35.188Z" fill="#F5B700"/>
<path d="M6.25151 39.3961H4.14746V41.5002H6.25151V39.3961Z" fill="#F5B700"/>
<path d="M6.25151 37.292H4.14746V39.396H6.25151V37.292Z" fill="#9B8500"/>
<path d="M6.25151 33.084H4.14746V35.188H6.25151V33.084Z" fill="#9B8500"/>
<path d="M6.25151 30.9799H4.14746V33.0839H6.25151V30.9799Z" fill="#F5B700"/>
<path d="M8.35552 41.5001H6.25146V43.6042H8.35552V41.5001Z" fill="#F5B700"/>
<path d="M6.25151 41.5001H4.14746V43.6042H6.25151V41.5001Z" fill="#9B8500"/>
<path d="M8.35552 43.6042H6.25146V45.7083H8.35552V43.6042Z" fill="#F5B700"/>
<path d="M10.4598 43.6042H8.35571V45.7083H10.4598V43.6042Z" fill="#9B8500"/>
<path d="M14.6678 49.9164H12.5637V52.0204H14.6678V49.9164Z" fill="#F5B700"/>
<path d="M14.6678 47.8123H12.5637V49.9163H14.6678V47.8123Z" fill="#9B8500"/>
<path d="M14.6678 45.7083H12.5637V47.8123H14.6678V45.7083Z" fill="#9B8500"/>
<path d="M18.8758 47.8123H16.7717V49.9163H18.8758V47.8123Z" fill="#F5B700"/>
<path d="M18.8758 45.7083H16.7717V47.8123H18.8758V45.7083Z" fill="#F5B700"/>
<path d="M18.8758 41.5001H16.7717V43.6042H18.8758V41.5001Z" fill="#F5B700"/>
<path d="M18.8758 52.0204H16.7717V54.1244H18.8758V52.0204Z" fill="#F5B700"/>
<path d="M18.8758 49.9164H16.7717V52.0204H18.8758V49.9164Z" fill="#F5B700"/>
<path d="M18.8758 54.1245H16.7717V56.2285H18.8758V54.1245Z" fill="#F5B700"/>
<path d="M18.8758 43.6042H16.7717V45.7083H18.8758V43.6042Z" fill="#F5B700"/>
<path d="M16.7718 54.1245H14.6677V56.2285H16.7718V54.1245Z" fill="#F5B700"/>
<path d="M16.7718 52.0204H14.6677V54.1244H16.7718V52.0204Z" fill="#F5B700"/>
<path d="M16.7718 45.7083H14.6677V47.8123H16.7718V45.7083Z" fill="#F5B700"/>
<path d="M16.7718 49.9164H14.6677V52.0204H16.7718V49.9164Z" fill="#9B8500"/>
<path d="M16.7718 43.6042H14.6677V45.7083H16.7718V43.6042Z" fill="#F5B700"/>
<path d="M16.7718 47.8123H14.6677V49.9163H16.7718V47.8123Z" fill="#F5B700"/>
<path d="M18.8758 39.3961H16.7717V41.5002H18.8758V39.3961Z" fill="#F5B700"/>
<path d="M16.7718 41.5001H14.6677V43.6042H16.7718V41.5001Z" fill="#F5B700"/>
<path d="M14.6678 43.6042H12.5637V45.7083H14.6678V43.6042Z" fill="#9B8500"/>
<path d="M12.5638 47.8123H10.4597V49.9163H12.5638V47.8123Z" fill="#F5B700"/>
<path d="M12.5638 45.7083H10.4597V47.8123H12.5638V45.7083Z" fill="#F5B700"/>
<path d="M12.5638 49.9164H10.4597V52.0204H12.5638V49.9164Z" fill="#F5B700"/>
<path d="M12.5638 52.0204H10.4597V54.1244H12.5638V52.0204Z" fill="#9B8500"/>
<path d="M14.6678 54.1245H12.5637V56.2285H14.6678V54.1245Z" fill="#9B8500"/>
<path d="M14.6678 52.0204H12.5637V54.1244H14.6678V52.0204Z" fill="#F5B700"/>
<path d="M63.007 52.0204H60.903V54.1244H63.007V52.0204Z" fill="#0F0F12"/>
<path d="M63.007 49.9164H60.903V52.0204H63.007V49.9164Z" fill="#0F0F12"/>
<path d="M63.007 47.8123H60.903V49.9163H63.007V47.8123Z" fill="#0F0F12"/>
<path d="M63.007 45.7083H60.903V47.8123H63.007V45.7083Z" fill="#0F0F12"/>
<path d="M60.903 54.1245H58.799V56.2285H60.903V54.1245Z" fill="#0F0F12"/>
<path d="M60.903 52.0204H58.799V54.1244H60.903V52.0204Z" fill="#F5B700"/>
<path d="M60.903 49.9164H58.799V52.0204H60.903V49.9164Z" fill="#F5B700"/>
<path d="M60.903 47.8123H58.799V49.9163H60.903V47.8123Z" fill="#F5B700"/>
<path d="M60.903 45.7083H58.799V47.8123H60.903V45.7083Z" fill="#F5B700"/>
<path d="M58.7988 56.2285H56.6947V58.3325H58.7988V56.2285Z" fill="#0F0F12"/>
<path d="M58.7988 54.1245H56.6947V56.2285H58.7988V54.1245Z" fill="#F5B700"/>
<path d="M56.6947 56.2285H54.5907V58.3325H56.6947V56.2285Z" fill="#0F0F12"/>
<path d="M54.5907 56.2285H52.4867V58.3325H54.5907V56.2285Z" fill="#0F0F12"/>
<path d="M52.4867 56.2285H50.3827V58.3325H52.4867V56.2285Z" fill="#0F0F12"/>
<path d="M52.4867 52.0204H50.3827V54.1244H52.4867V52.0204Z" fill="#EAEAEA"/>
<path d="M52.4867 49.9164H50.3827V52.0204H52.4867V49.9164Z" fill="#0F0F12"/>
<path d="M52.4867 47.8123H50.3827V49.9163H52.4867V47.8123Z" fill="#EAEAEA"/>
<path d="M50.3827 56.2285H48.2787V58.3325H50.3827V56.2285Z" fill="#0F0F12"/>
<path d="M50.3827 52.0204H48.2787V54.1244H50.3827V52.0204Z" fill="#0F0F12"/>
<path d="M50.3827 45.7083H48.2787V47.8123H50.3827V45.7083Z" fill="#EAEAEA"/>
<path d="M48.2786 56.2285H46.1746V58.3325H48.2786V56.2285Z" fill="#0F0F12"/>
<path d="M48.2786 52.0204H46.1746V54.1244H48.2786V52.0204Z" fill="#EAEAEA"/>
<path d="M48.2786 49.9164H46.1746V52.0204H48.2786V49.9164Z" fill="#0F0F12"/>
<path d="M48.2786 47.8123H46.1746V49.9163H48.2786V47.8123Z" fill="#EAEAEA"/>
<path d="M46.1745 56.2285H44.0704V58.3325H46.1745V56.2285Z" fill="#0F0F12"/>
<path d="M46.1745 54.1245H44.0704V56.2285H46.1745V54.1245Z" fill="#EAEAEA"/>
<path d="M46.1745 52.0204H44.0704V54.1244H46.1745V52.0204Z" fill="#EAEAEA"/>
<path d="M46.1745 49.9164H44.0704V52.0204H46.1745V49.9164Z" fill="#0F0F12"/>
<path d="M46.1745 45.7083H44.0704V47.8123H46.1745V45.7083Z" fill="#EAEAEA"/>
<path d="M44.0705 56.2285H41.9664V58.3325H44.0705V56.2285Z" fill="#0F0F12"/>
<path d="M44.0705 54.1245H41.9664V56.2285H44.0705V54.1245Z" fill="#F5B700"/>
<path d="M44.0705 52.0204H41.9664V54.1244H44.0705V52.0204Z" fill="#EAEAEA"/>
<path d="M44.0705 49.9164H41.9664V52.0204H44.0705V49.9164Z" fill="#0F0F12"/>
<path d="M44.0705 47.8123H41.9664V49.9163H44.0705V47.8123Z" fill="#F5B700"/>
<path d="M44.0705 45.7083H41.9664V47.8123H44.0705V45.7083Z" fill="#EAEAEA"/>
<path d="M41.9665 56.2285H39.8624V58.3325H41.9665V56.2285Z" fill="#0F0F12"/>
<path d="M41.9665 54.1245H39.8624V56.2285H41.9665V54.1245Z" fill="#F5B700"/>
<path d="M41.9665 52.0204H39.8624V54.1244H41.9665V52.0204Z" fill="#F5B700"/>
<path d="M41.9665 49.9164H39.8624V52.0204H41.9665V49.9164Z" fill="#EAEAEA"/>
<path d="M41.9665 47.8123H39.8624V49.9163H41.9665V47.8123Z" fill="#F5B700"/>
<path d="M41.9665 45.7083H39.8624V47.8123H41.9665V45.7083Z" fill="#F5B700"/>
<path d="M39.8625 56.2285H37.7584V58.3325H39.8625V56.2285Z" fill="#0F0F12"/>
<path d="M39.8625 54.1245H37.7584V56.2285H39.8625V54.1245Z" fill="#9B8500"/>
<path d="M39.8625 52.0204H37.7584V54.1244H39.8625V52.0204Z" fill="#F5B700"/>
<path d="M39.8625 49.9164H37.7584V52.0204H39.8625V49.9164Z" fill="#F5B700"/>
<path d="M39.8625 47.8123H37.7584V49.9163H39.8625V47.8123Z" fill="#F5B700"/>
<path d="M39.8625 45.7083H37.7584V47.8123H39.8625V45.7083Z" fill="#F5B700"/>
<path d="M37.7583 56.2285H35.6543V58.3325H37.7583V56.2285Z" fill="#0F0F12"/>
<path d="M37.7583 54.1245H35.6543V56.2285H37.7583V54.1245Z" fill="#F5B700"/>
<path d="M37.7583 52.0204H35.6543V54.1244H37.7583V52.0204Z" fill="#F5B700"/>
<path d="M37.7583 49.9164H35.6543V52.0204H37.7583V49.9164Z" fill="#9B8500"/>
<path d="M37.7583 47.8123H35.6543V49.9163H37.7583V47.8123Z" fill="#F5B700"/>
<path d="M37.7583 45.7083H35.6543V47.8123H37.7583V45.7083Z" fill="#F5B700"/>
<path d="M35.6543 56.2285H33.5503V58.3325H35.6543V56.2285Z" fill="#0F0F12"/>
<path d="M35.6543 49.9164H33.5503V52.0204H35.6543V49.9164Z" fill="#F5B700"/>
<path d="M35.6543 47.8123H33.5503V49.9163H35.6543V47.8123Z" fill="#F5B700"/>
<path d="M35.6543 45.7083H33.5503V47.8123H35.6543V45.7083Z" fill="#F5B700"/>
<path d="M33.6043 56.2285H31.5002V58.3325H33.6043V56.2285Z" fill="#0F0F12"/>
<path d="M31.5003 56.2285H29.3962V58.3325H31.5003V56.2285Z" fill="#0F0F12"/>
<path d="M31.5003 54.1245H29.3962V56.2285H31.5003V54.1245Z" fill="#F5B700"/>
<path d="M31.5003 52.0204H29.3962V54.1244H31.5003V52.0204Z" fill="#F5B700"/>
<path d="M31.5003 49.9164H29.3962V52.0204H31.5003V49.9164Z" fill="#F5B700"/>
<path d="M31.5003 47.8123H29.3962V49.9163H31.5003V47.8123Z" fill="#F5B700"/>
<path d="M31.5003 45.7083H29.3962V47.8123H31.5003V45.7083Z" fill="#F5B700"/>
<path d="M29.396 56.2285H27.292V58.3325H29.396V56.2285Z" fill="#0F0F12"/>
<path d="M29.396 54.1245H27.292V56.2285H29.396V54.1245Z" fill="#F5B700"/>
<path d="M29.396 52.0204H27.292V54.1244H29.396V52.0204Z" fill="#F5B700"/>
<path d="M29.396 49.9164H27.292V52.0204H29.396V49.9164Z" fill="#F5B700"/>
<path d="M29.396 47.8123H27.292V49.9163H29.396V47.8123Z" fill="#F5B700"/>
<path d="M29.396 45.7083H27.292V47.8123H29.396V45.7083Z" fill="#F5B700"/>
<path d="M29.396 43.6042H27.292V45.7083H29.396V43.6042Z" fill="#F5B700"/>
<path d="M29.396 41.5001H27.292V43.6042H29.396V41.5001Z" fill="#F5B700"/>
<path d="M29.396 37.292H27.292V39.396H29.396V37.292Z" fill="#9B8500"/>
<path d="M29.396 35.188H27.292V37.292H29.396V35.188Z" fill="#0F0F12"/>
<path d="M27.292 56.2285H25.188V58.3325H27.292V56.2285Z" fill="#0F0F12"/>
<path d="M27.292 54.1245H25.188V56.2285H27.292V54.1245Z" fill="#F5B700"/>
<path d="M27.292 52.0204H25.188V54.1244H27.292V52.0204Z" fill="#F5B700"/>
<path d="M27.292 49.9164H25.188V52.0204H27.292V49.9164Z" fill="#F5B700"/>
<path d="M27.292 47.8123H25.188V49.9163H27.292V47.8123Z" fill="#F5B700"/>
<path d="M27.292 45.7083H25.188V47.8123H27.292V45.7083Z" fill="#9B8500"/>
<path d="M27.292 43.6042H25.188V45.7083H27.292V43.6042Z" fill="#9B8500"/>
<path d="M27.292 41.5001H25.188V43.6042H27.292V41.5001Z" fill="#9B8500"/>
<path d="M27.292 39.3961H25.188V41.5002H27.292V39.3961Z" fill="#9B8500"/>
<path d="M27.292 37.292H25.188V39.396H27.292V37.292Z" fill="#9B8500"/>
<path d="M27.292 35.188H25.188V37.292H27.292V35.188Z" fill="#0F0F12"/>
<path d="M33.6043 37.292H31.5002V39.396H33.6043V37.292Z" fill="#9B8500"/>
<path d="M33.6043 35.188H31.5002V37.292H33.6043V35.188Z" fill="#0F0F12"/>
<path d="M31.5003 39.3961H29.3962V41.5002H31.5003V39.3961Z" fill="#9B8500"/>
<path d="M31.5003 37.292H29.3962V39.396H31.5003V37.292Z" fill="#9B8500"/>
<path d="M31.5003 35.188H29.3962V37.292H31.5003V35.188Z" fill="#0F0F12"/>
<path d="M25.188 56.2285H23.084V58.3325H25.188V56.2285Z" fill="#0F0F12"/>
<path d="M25.188 54.1245H23.084V56.2285H25.188V54.1245Z" fill="#F5B700"/>
<path d="M25.188 52.0204H23.084V54.1244H25.188V52.0204Z" fill="#F5B700"/>
<path d="M25.188 49.9164H23.084V52.0204H25.188V49.9164Z" fill="#F5B700"/>
<path d="M25.188 47.8123H23.084V49.9163H25.188V47.8123Z" fill="#F5B700"/>
<path d="M25.188 45.7083H23.084V47.8123H25.188V45.7083Z" fill="#F5B700"/>
<path d="M25.188 43.6042H23.084V45.7083H25.188V43.6042Z" fill="#F5B700"/>
<path d="M25.188 41.5001H23.084V43.6042H25.188V41.5001Z" fill="#F5B700"/>
<path d="M25.188 39.3961H23.084V41.5002H25.188V39.3961Z" fill="#F5B700"/>
<path d="M25.188 37.292H23.084V39.396H25.188V37.292Z" fill="#F5B700"/>
<path d="M25.188 35.188H23.084V37.292H25.188V35.188Z" fill="#0F0F12"/>
<path d="M23.084 56.2285H20.98V58.3325H23.084V56.2285Z" fill="#0F0F12"/>
<path d="M23.084 54.1245H20.98V56.2285H23.084V54.1245Z" fill="#0F0F12"/>
<path d="M23.084 52.0204H20.98V54.1244H23.084V52.0204Z" fill="#0F0F12"/>
<path d="M23.084 49.9164H20.98V52.0204H23.084V49.9164Z" fill="#F5B700"/>
<path d="M23.084 47.8123H20.98V49.9163H23.084V47.8123Z" fill="#F5B700"/>
<path d="M23.084 45.7083H20.98V47.8123H23.084V45.7083Z" fill="#F5B700"/>
<path d="M23.084 43.6042H20.98V45.7083H23.084V43.6042Z" fill="#F5B700"/>
<path d="M23.084 41.5001H20.98V43.6042H23.084V41.5001Z" fill="#F5B700"/>
<path d="M23.084 39.3961H20.98V41.5002H23.084V39.3961Z" fill="#F5B700"/>
<path d="M23.084 37.292H20.98V39.396H23.084V37.292Z" fill="#9B8500"/>
<path d="M23.084 35.188H20.98V37.292H23.084V35.188Z" fill="#0F0F12"/>
<path d="M20.98 56.2285H18.876V58.3325H20.98V56.2285Z" fill="#0F0F12"/>
<path d="M20.98 54.1245H18.876V56.2285H20.98V54.1245Z" fill="#F5B700"/>
<path d="M20.98 52.0204H18.876V54.1244H20.98V52.0204Z" fill="#F5B700"/>
<path d="M20.98 49.9164H18.876V52.0204H20.98V49.9164Z" fill="#0F0F12"/>
<path d="M20.98 47.8123H18.876V49.9163H20.98V47.8123Z" fill="#9B8500"/>
<path d="M20.98 45.7083H18.876V47.8123H20.98V45.7083Z" fill="#9B8500"/>
<path d="M20.98 43.6042H18.876V45.7083H20.98V43.6042Z" fill="#9B8500"/>
<path d="M20.98 41.5001H18.876V43.6042H20.98V41.5001Z" fill="#9B8500"/>
<path d="M20.98 39.3961H18.876V41.5002H20.98V39.3961Z" fill="#9B8500"/>
<path d="M20.98 37.292H18.876V39.396H20.98V37.292Z" fill="#F5B700"/>
<path d="M20.98 35.188H18.876V37.292H20.98V35.188Z" fill="#0F0F12"/>
<path d="M18.8758 56.2285H16.7717V58.3325H18.8758V56.2285Z" fill="#0F0F12"/>
<path d="M18.8758 37.292H16.7717V39.396H18.8758V37.292Z" fill="#0F0F12"/>
<path d="M16.7718 56.2285H14.6677V58.3325H16.7718V56.2285Z" fill="#0F0F12"/>
<path d="M16.7718 39.3961H14.6677V41.5002H16.7718V39.3961Z" fill="#0F0F12"/>
<path d="M14.6678 56.2285H12.5637V58.3325H14.6678V56.2285Z" fill="#0F0F12"/>
<path d="M14.6678 41.5001H12.5637V43.6042H14.6678V41.5001Z" fill="#0F0F12"/>
<path d="M14.6678 30.9799H12.5637V33.0839H14.6678V30.9799Z" fill="#0F0F12"/>
<path d="M14.6678 28.8759H12.5637V30.9799H14.6678V28.8759Z" fill="#0F0F12"/>
<path d="M14.6678 26.7718H12.5637V28.8758H14.6678V26.7718Z" fill="#0F0F12"/>
<path d="M12.5638 54.1245H10.4597V56.2285H12.5638V54.1245Z" fill="#0F0F12"/>
<path d="M12.5638 43.6042H10.4597V45.7083H12.5638V43.6042Z" fill="#0F0F12"/>
<path d="M12.5638 30.9799H10.4597V33.0839H12.5638V30.9799Z" fill="#0F0F12"/>
<path d="M12.5638 24.6677H10.4597V26.7718H12.5638V24.6677Z" fill="#0F0F12"/>
<path d="M10.4598 52.0204H8.35571V54.1244H10.4598V52.0204Z" fill="#0F0F12"/>
<path d="M10.4598 49.9164H8.35571V52.0204H10.4598V49.9164Z" fill="#0F0F12"/>
<path d="M10.4598 47.8123H8.35571V49.9163H10.4598V47.8123Z" fill="#0F0F12"/>
<path d="M10.4598 45.7083H8.35571V47.8123H10.4598V45.7083Z" fill="#0F0F12"/>
<path d="M10.4598 41.5001H8.35571V43.6042H10.4598V41.5001Z" fill="#0F0F12"/>
<path d="M10.4598 33.084H8.35571V35.188H10.4598V33.084Z" fill="#0F0F12"/>
<path d="M10.4598 24.6677H8.35571V26.7718H10.4598V24.6677Z" fill="#0F0F12"/>
<path d="M8.35552 45.7083H6.25146V47.8123H8.35552V45.7083Z" fill="#0F0F12"/>
<path d="M8.35552 39.3961H6.25146V41.5002H8.35552V39.3961Z" fill="#0F0F12"/>
<path d="M8.35552 37.292H6.25146V39.396H8.35552V37.292Z" fill="#0F0F12"/>
<path d="M8.35552 35.188H6.25146V37.292H8.35552V35.188Z" fill="#0F0F12"/>
<path d="M8.35552 26.7718H6.25146V28.8758H8.35552V26.7718Z" fill="#0F0F12"/>
<path d="M6.25151 43.6042H4.14746V45.7083H6.25151V43.6042Z" fill="#0F0F12"/>
<path d="M6.25151 28.8759H4.14746V30.9799H6.25151V28.8759Z" fill="#0F0F12"/>
<path d="M4.14751 41.5001H2.04346V43.6042H4.14751V41.5001Z" fill="#0F0F12"/>
<path d="M4.14751 39.3961H2.04346V41.5002H4.14751V39.3961Z" fill="#0F0F12"/>
<path d="M4.14751 37.292H2.04346V39.396H4.14751V37.292Z" fill="#0F0F12"/>
<path d="M4.14751 35.188H2.04346V37.292H4.14751V35.188Z" fill="#0F0F12"/>
<path d="M4.14751 33.084H2.04346V35.188H4.14751V33.084Z" fill="#0F0F12"/>
<path d="M4.14751 30.9799H2.04346V33.0839H4.14751V30.9799Z" fill="#0F0F12"/>
<path d="M35.7513 49.9164H33.5988V52.0204H35.7513V49.9164Z" fill="#0F0F12"/>
<path d="M33.7256 51.996H31.5731V54.1H33.7256V51.996Z" fill="#0F0F12"/>
<path d="M35.7513 45.7083H33.5988V47.8123H35.7513V45.7083Z" fill="#0F0F12"/>
<path d="M33.6891 43.5921H31.5366V45.6961H33.6891V43.5921Z" fill="#0F0F12"/>
<path d="M63.1582 56.2285H61.0542V58.3325H63.1582V56.2285Z" fill="#0F0F12"/>
<path d="M61.0541 56.2285H58.9501V58.3325H61.0541V56.2285Z" fill="#0F0F12"/>
<path d="M58.95 56.2285H56.8459V58.3325H58.95V56.2285Z" fill="#0F0F12"/>
<path d="M56.846 56.2285H54.7419V58.3325H56.846V56.2285Z" fill="#0F0F12"/>
<path d="M67.3663 56.2285H65.2622V58.3325H67.3663V56.2285Z" fill="#0F0F12"/>
<path d="M65.2623 56.2285H63.1582V58.3325H65.2623V56.2285Z" fill="#0F0F12"/>
<path d="M54.742 56.2285H52.6379V58.3325H54.742V56.2285Z" fill="#0F0F12"/>
<path d="M52.638 56.2285H50.5339V58.3325H52.638V56.2285Z" fill="#0F0F12"/>
<path d="M50.5339 56.2285H48.4298V58.3325H50.5339V56.2285Z" fill="#0F0F12"/>
<path d="M48.4299 56.2285H46.3258V58.3325H48.4299V56.2285Z" fill="#0F0F12"/>
<path d="M46.3257 56.2285H44.2217V58.3325H46.3257V56.2285Z" fill="#0F0F12"/>
<path d="M44.2217 56.2285H42.1177V58.3325H44.2217V56.2285Z" fill="#0F0F12"/>
<path d="M42.1177 56.2285H40.0137V58.3325H42.1177V56.2285Z" fill="#0F0F12"/>
<path d="M40.0136 56.2285H37.9095V58.3325H40.0136V56.2285Z" fill="#0F0F12"/>
<path d="M37.9096 56.2285H35.8055V58.3325H37.9096V56.2285Z" fill="#0F0F12"/>
<path d="M37.9096 54.1245H35.8055V56.2285H37.9096V54.1245Z" fill="#F5B700"/>
<path d="M35.8056 56.2285H33.7015V58.3325H35.8056V56.2285Z" fill="#0F0F12"/>
<path d="M74.498 49.9164H72.3455V52.0204H74.498V49.9164Z" fill="#0F0F12"/>
<path d="M76.6504 49.9164H74.4979V52.0204H76.6504V49.9164Z" fill="#0F0F12"/>
<path d="M74.498 52.0204H72.3455V54.1244H74.498V52.0204Z" fill="#EAEAEA"/>
<path d="M76.6504 52.0204H74.4979V54.1244H76.6504V52.0204Z" fill="#EAEAEA"/>
<path d="M78.8033 52.0204H76.6508V54.1244H78.8033V52.0204Z" fill="#0F0F12"/>
<path d="M80.9557 54.1245H78.8032V56.2285H80.9557V54.1245Z" fill="#0F0F12"/>
<path d="M80.9557 56.2285H78.8032V58.3325H80.9557V56.2285Z" fill="#0F0F12"/>
<path d="M78.8033 56.2285H76.6508V58.3325H78.8033V56.2285Z" fill="#0F0F12"/>
<path d="M76.6504 56.2285H74.4979V58.3325H76.6504V56.2285Z" fill="#0F0F12"/>
<path d="M74.498 56.2285H72.3455V58.3325H74.498V56.2285Z" fill="#0F0F12"/>
<path d="M72.3455 56.2285H70.193V58.3325H72.3455V56.2285Z" fill="#0F0F12"/>
<path d="M70.1928 56.2285H68.0403V58.3325H70.1928V56.2285Z" fill="#0F0F12"/>
<path d="M68.0402 56.2285H65.8877V58.3325H68.0402V56.2285Z" fill="#0F0F12"/>
<path d="M74.498 43.6042H72.3455V45.7083H74.498V43.6042Z" fill="#0F0F12"/>
<path d="M72.3455 49.9164H70.193V52.0204H72.3455V49.9164Z" fill="#0F0F12"/>
<path d="M72.3455 47.8123H70.193V49.9163H72.3455V47.8123Z" fill="#0F0F12"/>
<path d="M72.3455 45.7083H70.193V47.8123H72.3455V45.7083Z" fill="#0F0F12"/>
<path d="M72.3455 37.292H70.193V39.396H72.3455V37.292Z" fill="#0F0F12"/>
<path d="M72.3455 35.188H70.193V37.292H72.3455V35.188Z" fill="#0F0F12"/>
<path d="M72.3455 33.084H70.193V35.188H72.3455V33.084Z" fill="#0F0F12"/>
<path d="M72.3455 30.9799H70.193V33.0839H72.3455V30.9799Z" fill="#0F0F12"/>
<path d="M70.1928 52.0204H68.0403V54.1244H70.1928V52.0204Z" fill="#0F0F12"/>
<path d="M72.3455 52.0204H70.193V54.1244H72.3455V52.0204Z" fill="#0F0F12"/>
<path d="M70.1928 49.9164H68.0403V52.0204H70.1928V49.9164Z" fill="#9B8500"/>
<path d="M70.1928 47.8123H68.0403V49.9163H70.1928V47.8123Z" fill="#F5B700"/>
<path d="M70.1928 45.7083H68.0403V47.8123H70.1928V45.7083Z" fill="#9B8500"/>
<path d="M70.1928 43.6042H68.0403V45.7083H70.1928V43.6042Z" fill="#0F0F12"/>
<path d="M70.1928 41.5001H68.0403V43.6042H70.1928V41.5001Z" fill="#0F0F12"/>
<path d="M70.1928 39.3961H68.0403V41.5002H70.1928V39.3961Z" fill="#0F0F12"/>
<path d="M70.1928 37.292H68.0403V39.396H70.1928V37.292Z" fill="#EAEAEA"/>
<path d="M70.1928 35.188H68.0403V37.292H70.1928V35.188Z" fill="#EAEAEA"/>
<path d="M70.1928 33.084H68.0403V35.188H70.1928V33.084Z" fill="#EAEAEA"/>
<path d="M70.1928 30.9799H68.0403V33.0839H70.1928V30.9799Z" fill="#EAEAEA"/>
<path d="M70.1928 28.8759H68.0403V30.9799H70.1928V28.8759Z" fill="#0F0F12"/>
<path d="M68.0402 54.1245H65.8877V56.2285H68.0402V54.1245Z" fill="#0F0F12"/>
<path d="M70.1928 54.1245H68.0403V56.2285H70.1928V54.1245Z" fill="#EAEAEA"/>
<path d="M72.3455 54.1245H70.193V56.2285H72.3455V54.1245Z" fill="#EAEAEA"/>
<path d="M74.498 54.1245H72.3455V56.2285H74.498V54.1245Z" fill="#EAEAEA"/>
<path d="M76.6504 54.1245H74.4979V56.2285H76.6504V54.1245Z" fill="#EAEAEA"/>
<path d="M78.8033 54.1245H76.6508V56.2285H78.8033V54.1245Z" fill="#EAEAEA"/>
<path d="M68.0402 52.0204H65.8877V54.1244H68.0402V52.0204Z" fill="#F5B700"/>
<path d="M68.0402 49.9164H65.8877V52.0204H68.0402V49.9164Z" fill="#9B8500"/>
<path d="M68.0402 47.8123H65.8877V49.9163H68.0402V47.8123Z" fill="#F5B700"/>
<path d="M68.0402 45.7083H65.8877V47.8123H68.0402V45.7083Z" fill="#9B8500"/>
<path d="M68.0402 43.6042H65.8877V45.7083H68.0402V43.6042Z" fill="#F5B700"/>
<path d="M68.0402 41.5001H65.8877V43.6042H68.0402V41.5001Z" fill="#F5B700"/>
<path d="M68.0402 39.3961H65.8877V41.5002H68.0402V39.3961Z" fill="#F5B700"/>
<path d="M68.0402 37.292H65.8877V39.396H68.0402V37.292Z" fill="#0F0F12"/>
<path d="M68.0402 35.188H65.8877V37.292H68.0402V35.188Z" fill="#EAEAEA"/>
<path d="M68.0402 33.084H65.8877V35.188H68.0402V33.084Z" fill="#EAEAEA"/>
<path d="M68.0402 30.9799H65.8877V33.0839H68.0402V30.9799Z" fill="#0F0F12"/>
<path d="M65.8875 54.1245H63.735V56.2285H65.8875V54.1245Z" fill="#EAEAEA"/>
<path d="M65.8875 52.0204H63.735V54.1244H65.8875V52.0204Z" fill="#EAEAEA"/>
<path d="M65.8875 49.9164H63.735V52.0204H65.8875V49.9164Z" fill="#F5B700"/>
<path d="M65.8875 47.8123H63.735V49.9163H65.8875V47.8123Z" fill="#F5B700"/>
<path d="M65.8875 45.7083H63.735V47.8123H65.8875V45.7083Z" fill="#F5B700"/>
<path d="M65.8875 43.6042H63.735V45.7083H65.8875V43.6042Z" fill="#F5B700"/>
<path d="M65.8875 41.5001H63.735V43.6042H65.8875V41.5001Z" fill="#F5B700"/>
<path d="M65.8875 39.3961H63.735V41.5002H65.8875V39.3961Z" fill="#F5B700"/>
<path d="M65.8875 37.292H63.735V39.396H65.8875V37.292Z" fill="#F5B700"/>
<path d="M65.8875 35.188H63.735V37.292H65.8875V35.188Z" fill="#0F0F12"/>
<path d="M65.8875 33.084H63.735V35.188H65.8875V33.084Z" fill="#0F0F12"/>
<path d="M63.735 54.1245H61.5825V56.2285H63.735V54.1245Z" fill="#EAEAEA"/>
<path d="M63.735 52.0204H61.5825V54.1244H63.735V52.0204Z" fill="#EAEAEA"/>
<path d="M63.735 49.9164H61.5825V52.0204H63.735V49.9164Z" fill="#EAEAEA"/>
<path d="M63.735 47.8123H61.5825V49.9163H63.735V47.8123Z" fill="#F5B700"/>
<path d="M63.735 45.7083H61.5825V47.8123H63.735V45.7083Z" fill="#0F0F12"/>
<path d="M63.735 43.6042H61.5825V45.7083H63.735V43.6042Z" fill="#0F0F12"/>
<path d="M63.735 41.5001H61.5825V43.6042H63.735V41.5001Z" fill="#F5B700"/>
<path d="M63.735 39.3961H61.5825V41.5002H63.735V39.3961Z" fill="#F5B700"/>
<path d="M63.735 37.292H61.5825V39.396H63.735V37.292Z" fill="#F5B700"/>
<path d="M63.735 35.188H61.5825V37.292H63.735V35.188Z" fill="#F5B700"/>
<path d="M63.735 33.084H61.5825V35.188H63.735V33.084Z" fill="#0F0F12"/>
<path d="M61.5823 54.1245H59.4298V56.2285H61.5823V54.1245Z" fill="#EAEAEA"/>
<path d="M61.5823 52.0204H59.4298V54.1244H61.5823V52.0204Z" fill="#EAEAEA"/>
<path d="M61.5823 49.9164H59.4298V52.0204H61.5823V49.9164Z" fill="#EAEAEA"/>
<path d="M61.5823 47.8123H59.4298V49.9163H61.5823V47.8123Z" fill="#F5B700"/>
<path d="M61.5823 45.7083H59.4298V47.8123H61.5823V45.7083Z" fill="#0F0F12"/>
<path d="M61.5823 43.6042H59.4298V45.7083H61.5823V43.6042Z" fill="#0F0F12"/>
<path d="M61.5823 41.5001H59.4298V43.6042H61.5823V41.5001Z" fill="#F5B700"/>
<path d="M61.5823 39.3961H59.4298V41.5002H61.5823V39.3961Z" fill="#9B8500"/>
<path d="M61.5823 37.292H59.4298V39.396H61.5823V37.292Z" fill="#9B8500"/>
<path d="M61.5823 35.188H59.4298V37.292H61.5823V35.188Z" fill="#9B8500"/>
<path d="M61.5823 33.084H59.4298V35.188H61.5823V33.084Z" fill="#0F0F12"/>
<path d="M59.4299 54.1245H57.2773V56.2285H59.4299V54.1245Z" fill="#EAEAEA"/>
<path d="M59.4299 52.0204H57.2773V54.1244H59.4299V52.0204Z" fill="#EAEAEA"/>
<path d="M59.4299 49.9164H57.2773V52.0204H59.4299V49.9164Z" fill="#EAEAEA"/>
<path d="M59.4299 47.8123H57.2773V49.9163H59.4299V47.8123Z" fill="#F5B700"/>
<path d="M59.4299 45.7083H57.2773V47.8123H59.4299V45.7083Z" fill="#F5B700"/>
<path d="M59.4299 43.6042H57.2773V45.7083H59.4299V43.6042Z" fill="#F5B700"/>
<path d="M59.4299 41.5001H57.2773V43.6042H59.4299V41.5001Z" fill="#F5B700"/>
<path d="M59.4299 39.3961H57.2773V41.5002H59.4299V39.3961Z" fill="#F5B700"/>
<path d="M59.4299 37.292H57.2773V39.396H59.4299V37.292Z" fill="#F5B700"/>
<path d="M59.4299 35.188H57.2773V37.292H59.4299V35.188Z" fill="#F5B700"/>
<path d="M59.4299 33.084H57.2773V35.188H59.4299V33.084Z" fill="#0F0F12"/>
<path d="M57.2773 54.1245H55.1248V56.2285H57.2773V54.1245Z" fill="#EAEAEA"/>
<path d="M57.2773 52.0204H55.1248V54.1244H57.2773V52.0204Z" fill="#EAEAEA"/>
<path d="M57.2773 49.9164H55.1248V52.0204H57.2773V49.9164Z" fill="#EAEAEA"/>
<path d="M57.2773 47.8123H55.1248V49.9163H57.2773V47.8123Z" fill="#EAEAEA"/>
<path d="M57.2773 45.7083H55.1248V47.8123H57.2773V45.7083Z" fill="#EAEAEA"/>
<path d="M57.2773 43.6042H55.1248V45.7083H57.2773V43.6042Z" fill="#F5B700"/>
<path d="M57.2773 41.5001H55.1248V43.6042H57.2773V41.5001Z" fill="#F5B700"/>
<path d="M57.2773 39.3961H55.1248V41.5002H57.2773V39.3961Z" fill="#F5B700"/>
<path d="M57.2773 37.292H55.1248V39.396H57.2773V37.292Z" fill="#9B8500"/>
<path d="M57.2773 35.188H55.1248V37.292H57.2773V35.188Z" fill="#9B8500"/>
<path d="M57.2773 33.084H55.1248V35.188H57.2773V33.084Z" fill="#0F0F12"/>
<path d="M55.1246 54.0635H52.972V56.1676H55.1246V54.0635Z" fill="#0F0F12"/>
<path d="M55.1246 52.0204H52.972V54.1244H55.1246V52.0204Z" fill="#EAEAEA"/>
<path d="M55.1246 49.9164H52.972V52.0204H55.1246V49.9164Z" fill="#EAEAEA"/>
<path d="M55.1246 47.8123H52.972V49.9163H55.1246V47.8123Z" fill="#EAEAEA"/>
<path d="M55.1246 45.7083H52.972V47.8123H55.1246V45.7083Z" fill="#ED7793"/>
<path d="M55.1246 43.6042H52.972V45.7083H55.1246V43.6042Z" fill="#EAEAEA"/>
<path d="M55.1246 41.5001H52.972V43.6042H55.1246V41.5001Z" fill="#EAEAEA"/>
<path d="M55.1246 39.3961H52.972V41.5002H55.1246V39.3961Z" fill="#EAEAEA"/>
<path d="M55.1246 37.292H52.972V39.396H55.1246V37.292Z" fill="#EAEAEA"/>
<path d="M55.1246 35.188H52.972V37.292H55.1246V35.188Z" fill="#F5B700"/>
<path d="M55.1246 33.084H52.972V35.188H55.1246V33.084Z" fill="#0F0F12"/>
<path d="M52.9721 54.1245H50.8196V56.2285H52.9721V54.1245Z" fill="#EAEAEA"/>
<path d="M52.9721 51.9595H50.8196V54.0636H52.9721V51.9595Z" fill="#0F0F12"/>
<path d="M52.9721 49.9164H50.8196V52.0204H52.9721V49.9164Z" fill="#EAEAEA"/>
<path d="M52.9721 47.8123H50.8196V49.9163H52.9721V47.8123Z" fill="#EAEAEA"/>
<path d="M52.9721 45.7083H50.8196V47.8123H52.9721V45.7083Z" fill="#ED7793"/>
<path d="M52.9721 43.6042H50.8196V45.7083H52.9721V43.6042Z" fill="#EAEAEA"/>
<path d="M52.9721 41.5001H50.8196V43.6042H52.9721V41.5001Z" fill="#EAEAEA"/>
<path d="M52.9721 39.3961H50.8196V41.5002H52.9721V39.3961Z" fill="#EAEAEA"/>
<path d="M52.9721 37.292H50.8196V39.396H52.9721V37.292Z" fill="#EAEAEA"/>
<path d="M52.9721 35.188H50.8196V37.292H52.9721V35.188Z" fill="#F5B700"/>
<path d="M52.9721 33.084H50.8196V35.188H52.9721V33.084Z" fill="#0F0F12"/>
<path d="M50.8195 54.1245H48.667V56.2285H50.8195V54.1245Z" fill="#EAEAEA"/>
<path d="M50.8195 52.0204H48.667V54.1244H50.8195V52.0204Z" fill="#EAEAEA"/>
<path d="M50.8195 49.9164H48.667V51.9595H50.8195V49.9164Z" fill="#0F0F12"/>
<path d="M50.8195 47.8123H48.667V49.9163H50.8195V47.8123Z" fill="#EAEAEA"/>
<path d="M50.8195 45.7083H48.667V47.8123H50.8195V45.7083Z" fill="#EAEAEA"/>
<path d="M50.8195 43.6042H48.667V45.7083H50.8195V43.6042Z" fill="#F5B700"/>
<path d="M50.8195 41.5001H48.667V43.6042H50.8195V41.5001Z" fill="#F5B700"/>
<path d="M50.8195 39.3961H48.667V41.5002H50.8195V39.3961Z" fill="#F5B700"/>
<path d="M50.8195 37.292H48.667V39.396H50.8195V37.292Z" fill="#9B8500"/>
<path d="M50.8195 35.188H48.667V37.292H50.8195V35.188Z" fill="#9B8500"/>
<path d="M50.8195 33.084H48.667V35.188H50.8195V33.084Z" fill="#0F0F12"/>
<path d="M48.6669 54.1245H46.5144V56.2285H48.6669V54.1245Z" fill="#EAEAEA"/>
<path d="M48.6669 52.0204H46.5144V54.1244H48.6669V52.0204Z" fill="#EAEAEA"/>
<path d="M48.6669 49.8554H46.5144V51.9595H48.6669V49.8554Z" fill="#0F0F12"/>
<path d="M48.6669 47.8123H46.5144V49.9163H48.6669V47.8123Z" fill="#F5B700"/>
<path d="M48.6669 45.7083H46.5144V47.8123H48.6669V45.7083Z" fill="#F5B700"/>
<path d="M48.6669 43.6042H46.5144V45.7083H48.6669V43.6042Z" fill="#F5B700"/>
<path d="M48.6669 41.5001H46.5144V43.6042H48.6669V41.5001Z" fill="#F5B700"/>
<path d="M48.6669 39.3961H46.5144V41.5002H48.6669V39.3961Z" fill="#F5B700"/>
<path d="M48.6669 37.292H46.5144V39.396H48.6669V37.292Z" fill="#F5B700"/>
<path d="M48.6669 35.188H46.5144V37.292H48.6669V35.188Z" fill="#F5B700"/>
<path d="M48.6669 33.084H46.5144V35.188H48.6669V33.084Z" fill="#0F0F12"/>
<path d="M46.5141 54.1245H44.3616V56.2285H46.5141V54.1245Z" fill="#EAEAEA"/>
<path d="M46.5141 52.0204H44.3616V54.1244H46.5141V52.0204Z" fill="#EAEAEA"/>
<path d="M46.5141 49.8554H44.3616V51.9595H46.5141V49.8554Z" fill="#0F0F12"/>
<path d="M46.5141 47.8123H44.3616V49.9163H46.5141V47.8123Z" fill="#F5B700"/>
<path d="M46.5141 45.7083H44.3616V47.8123H46.5141V45.7083Z" fill="#0F0F12"/>
<path d="M46.5141 43.6042H44.3616V45.7083H46.5141V43.6042Z" fill="#0F0F12"/>
<path d="M46.5141 41.5001H44.3616V43.6042H46.5141V41.5001Z" fill="#F5B700"/>
<path d="M46.5141 39.3961H44.3616V41.5002H46.5141V39.3961Z" fill="#9B8500"/>
<path d="M46.5141 37.292H44.3616V39.396H46.5141V37.292Z" fill="#9B8500"/>
<path d="M46.5141 35.188H44.3616V37.292H46.5141V35.188Z" fill="#9B8500"/>
<path d="M46.5141 33.084H44.3616V35.188H46.5141V33.084Z" fill="#0F0F12"/>
<path d="M44.3616 54.1245H42.2091V56.2285H44.3616V54.1245Z" fill="#EAEAEA"/>
<path d="M44.3616 52.0204H42.2091V54.1244H44.3616V52.0204Z" fill="#EAEAEA"/>
<path d="M44.3616 49.9164H42.2091V52.0204H44.3616V49.9164Z" fill="#0F0F12"/>
<path d="M44.3616 47.8123H42.2091V49.9163H44.3616V47.8123Z" fill="#F5B700"/>
<path d="M44.3616 45.7083H42.2091V47.8123H44.3616V45.7083Z" fill="#0F0F12"/>
<path d="M44.3616 43.6042H42.2091V45.7083H44.3616V43.6042Z" fill="#0F0F12"/>
<path d="M44.3616 41.5001H42.2091V43.6042H44.3616V41.5001Z" fill="#F5B700"/>
<path d="M44.3616 39.3961H42.2091V41.5002H44.3616V39.3961Z" fill="#F5B700"/>
<path d="M44.3616 37.292H42.2091V39.396H44.3616V37.292Z" fill="#F5B700"/>
<path d="M44.3616 35.188H42.2091V37.292H44.3616V35.188Z" fill="#F5B700"/>
<path d="M44.3616 33.084H42.2091V35.188H44.3616V33.084Z" fill="#0F0F12"/>
<path d="M42.2092 54.1245H40.0566V56.2285H42.2092V54.1245Z" fill="#EAEAEA"/>
<path d="M42.2092 52.0204H40.0566V54.1244H42.2092V52.0204Z" fill="#EAEAEA"/>
<path d="M42.2092 49.9164H40.0566V52.0204H42.2092V49.9164Z" fill="#F5B700"/>
<path d="M42.2092 47.8123H40.0566V49.9163H42.2092V47.8123Z" fill="#F5B700"/>
<path d="M42.2092 45.7083H40.0566V47.8123H42.2092V45.7083Z" fill="#F5B700"/>
<path d="M42.2092 43.6042H40.0566V45.7083H42.2092V43.6042Z" fill="#F5B700"/>
<path d="M42.2092 41.5001H40.0566V43.6042H42.2092V41.5001Z" fill="#F5B700"/>
<path d="M42.2092 39.3961H40.0566V41.5002H42.2092V39.3961Z" fill="#F5B700"/>
<path d="M42.2092 37.292H40.0566V39.396H42.2092V37.292Z" fill="#F5B700"/>
<path d="M42.2092 35.188H40.0566V37.292H42.2092V35.188Z" fill="#0F0F12"/>
<path d="M42.2092 33.084H40.0566V35.188H42.2092V33.084Z" fill="#0F0F12"/>
<path d="M40.0566 54.1245H37.9041V56.2285H40.0566V54.1245Z" fill="#F5B700"/>
<path d="M40.0566 52.0204H37.9041V54.1244H40.0566V52.0204Z" fill="#F5B700"/>
<path d="M40.0566 49.9164H37.9041V52.0204H40.0566V49.9164Z" fill="#9B8500"/>
<path d="M40.0566 47.8123H37.9041V49.9163H40.0566V47.8123Z" fill="#F5B700"/>
<path d="M40.0566 45.7083H37.9041V47.8123H40.0566V45.7083Z" fill="#9B8500"/>
<path d="M40.0566 43.6042H37.9041V45.7083H40.0566V43.6042Z" fill="#F5B700"/>
<path d="M40.0566 41.5001H37.9041V43.6042H40.0566V41.5001Z" fill="#F5B700"/>
<path d="M40.0566 39.3961H37.9041V41.5002H40.0566V39.3961Z" fill="#F5B700"/>
<path d="M40.0566 37.292H37.9041V39.396H40.0566V37.292Z" fill="#0F0F12"/>
<path d="M40.0566 35.188H37.9041V37.292H40.0566V35.188Z" fill="#EAEAEA"/>
<path d="M40.0566 33.084H37.9041V35.188H40.0566V33.084Z" fill="#EAEAEA"/>
<path d="M40.0566 30.9799H37.9041V33.0839H40.0566V30.9799Z" fill="#0F0F12"/>
<path d="M37.9039 52.0204H35.7513V54.1244H37.9039V52.0204Z" fill="#F5B700"/>
<path d="M37.9039 49.9164H35.7513V52.0204H37.9039V49.9164Z" fill="#9B8500"/>
<path d="M37.9039 47.8123H35.7513V49.9163H37.9039V47.8123Z" fill="#F5B700"/>
<path d="M37.9039 45.7083H35.7513V47.8123H37.9039V45.7083Z" fill="#9B8500"/>
<path d="M37.9039 43.6042H35.7513V45.7083H37.9039V43.6042Z" fill="#0F0F12"/>
<path d="M37.9039 41.5001H35.7513V43.6042H37.9039V41.5001Z" fill="#0F0F12"/>
<path d="M37.9039 39.3961H35.7513V41.5002H37.9039V39.3961Z" fill="#0F0F12"/>
<path d="M37.9039 37.292H35.7513V39.396H37.9039V37.292Z" fill="#EAEAEA"/>
<path d="M37.9039 35.188H35.7513V37.292H37.9039V35.188Z" fill="#EAEAEA"/>
<path d="M37.9039 33.084H35.7513V35.188H37.9039V33.084Z" fill="#EAEAEA"/>
<path d="M37.9039 30.9799H35.7513V33.0839H37.9039V30.9799Z" fill="#EAEAEA"/>
<path d="M37.9039 28.8759H35.7513V30.9799H37.9039V28.8759Z" fill="#0F0F12"/>
<path d="M35.7513 47.8123H33.5988V49.9163H35.7513V47.8123Z" fill="#0F0F12"/>
<path d="M35.7513 39.3961H33.5988V41.5002H35.7513V39.3961Z" fill="#0F0F12"/>
<path d="M35.7513 37.292H33.5988V39.396H35.7513V37.292Z" fill="#0F0F12"/>
<path d="M35.7513 35.188H33.5988V37.292H35.7513V35.188Z" fill="#0F0F12"/>
<path d="M35.7513 33.084H33.5988V35.188H35.7513V33.084Z" fill="#0F0F12"/>
<path d="M35.7513 30.9799H33.5988V33.0839H35.7513V30.9799Z" fill="#0F0F12"/>
</svg>
