<svg width="83" height="83" viewBox="0 0 83 83" fill="none" xmlns="http://www.w3.org/2000/svg">
<path d="M38.8102 38.848H27.292V56.508H38.8102V38.848Z" fill="#A8E6CF"/>
<path d="M48.2786 54.1245H46.1746V56.2285H48.2786V54.1245Z" fill="#EAEAEA"/>
<path d="M50.3826 54.1245H48.2786V56.2285H50.3826V54.1245Z" fill="#0F0F12"/>
<path d="M48.2786 45.7083H46.1746V47.8123H48.2786V45.7083Z" fill="#EAEAEA"/>
<path d="M46.1746 47.8123H44.0706V49.9163H46.1746V47.8123Z" fill="#EAEAEA"/>
<path d="M50.3826 47.8123H48.2786V49.9163H50.3826V47.8123Z" fill="#EAEAEA"/>
<path d="M50.3826 49.9164H48.2786V52.0204H50.3826V49.9164Z" fill="#0F0F12"/>
<path d="M52.4869 45.7083H50.3828V47.8123H52.4869V45.7083Z" fill="#EAEAEA"/>
<path d="M54.5909 45.7083H52.4868V47.8123H54.5909V45.7083Z" fill="#EAEAEA"/>
<path d="M56.6949 45.7083H54.5908V47.8123H56.6949V45.7083Z" fill="#EAEAEA"/>
<path d="M54.5909 47.8123H52.4868V49.9163H54.5909V47.8123Z" fill="#EAEAEA"/>
<path d="M56.6949 47.8123H54.5908V49.9163H56.6949V47.8123Z" fill="#EAEAEA"/>
<path d="M54.5909 49.9164H52.4868V52.0204H54.5909V49.9164Z" fill="#0F0F12"/>
<path d="M56.6949 49.9164H54.5908V52.0204H56.6949V49.9164Z" fill="#EAEAEA"/>
<path d="M54.5909 52.0204H52.4868V54.1244H54.5909V52.0204Z" fill="#EAEAEA"/>
<path d="M52.4869 54.1245H50.3828V56.2285H52.4869V54.1245Z" fill="#EAEAEA"/>
<path d="M54.5909 54.1245H52.4868V56.2285H54.5909V54.1245Z" fill="#EAEAEA"/>
<path d="M56.6949 54.1245H54.5908V56.2285H56.6949V54.1245Z" fill="#EAEAEA"/>
<path d="M56.6949 52.0204H54.5908V54.1244H56.6949V52.0204Z" fill="#EAEAEA"/>
<path d="M58.7989 52.0204H56.6948V54.1244H58.7989V52.0204Z" fill="#EAEAEA"/>
<path d="M58.7989 49.9164H56.6948V52.0204H58.7989V49.9164Z" fill="#EAEAEA"/>
<path d="M58.7989 47.8123H56.6948V49.9163H58.7989V47.8123Z" fill="#EAEAEA"/>
<path d="M58.7989 45.7083H56.6948V47.8123H58.7989V45.7083Z" fill="#EAEAEA"/>
<path d="M8.35552 28.8759H6.25146V30.9799H8.35552V28.8759Z" fill="#EAEAEA"/>
<path d="M10.4598 26.7717H8.35571V28.8758H10.4598V26.7717Z" fill="#EAEAEA"/>
<path d="M12.5638 26.7717H10.4597V28.8758H12.5638V26.7717Z" fill="#EAEAEA"/>
<path d="M12.5638 28.8759H10.4597V30.9799H12.5638V28.8759Z" fill="#EAEAEA"/>
<path d="M10.4598 28.8759H8.35571V30.9799H10.4598V28.8759Z" fill="#EAEAEA"/>
<path d="M10.4598 30.9799H8.35571V33.0839H10.4598V30.9799Z" fill="#EAEAEA"/>
<path d="M8.35552 30.9799H6.25146V33.0839H8.35552V30.9799Z" fill="#A8E6CF"/>
<path d="M8.35552 33.084H6.25146V35.188H8.35552V33.084Z" fill="#58967F"/>
<path d="M6.25151 35.188H4.14746V37.292H6.25151V35.188Z" fill="#A8E6CF"/>
<path d="M6.25151 39.3961H4.14746V41.5002H6.25151V39.3961Z" fill="#A8E6CF"/>
<path d="M6.25151 37.292H4.14746V39.396H6.25151V37.292Z" fill="#58967F"/>
<path d="M6.25151 33.084H4.14746V35.188H6.25151V33.084Z" fill="#58967F"/>
<path d="M6.25151 30.9799H4.14746V33.0839H6.25151V30.9799Z" fill="#A8E6CF"/>
<path d="M8.35552 41.5001H6.25146V43.6042H8.35552V41.5001Z" fill="#A8E6CF"/>
<path d="M6.25151 41.5001H4.14746V43.6042H6.25151V41.5001Z" fill="#58967F"/>
<path d="M8.35552 43.6042H6.25146V45.7083H8.35552V43.6042Z" fill="#A8E6CF"/>
<path d="M10.4598 43.6042H8.35571V45.7083H10.4598V43.6042Z" fill="#58967F"/>
<path d="M14.6678 49.9164H12.5637V52.0204H14.6678V49.9164Z" fill="#A8E6CF"/>
<path d="M14.6678 47.8123H12.5637V49.9163H14.6678V47.8123Z" fill="#58967F"/>
<path d="M14.6678 45.7083H12.5637V47.8123H14.6678V45.7083Z" fill="#58967F"/>
<path d="M18.8758 47.8123H16.7717V49.9163H18.8758V47.8123Z" fill="#A8E6CF"/>
<path d="M18.8758 45.7083H16.7717V47.8123H18.8758V45.7083Z" fill="#A8E6CF"/>
<path d="M18.8758 41.5001H16.7717V43.6042H18.8758V41.5001Z" fill="#A8E6CF"/>
<path d="M18.8758 52.0204H16.7717V54.1244H18.8758V52.0204Z" fill="#A8E6CF"/>
<path d="M18.8758 49.9164H16.7717V52.0204H18.8758V49.9164Z" fill="#A8E6CF"/>
<path d="M18.8758 54.1245H16.7717V56.2285H18.8758V54.1245Z" fill="#A8E6CF"/>
<path d="M18.8758 43.6042H16.7717V45.7083H18.8758V43.6042Z" fill="#A8E6CF"/>
<path d="M16.7718 54.1245H14.6677V56.2285H16.7718V54.1245Z" fill="#A8E6CF"/>
<path d="M16.7718 52.0204H14.6677V54.1244H16.7718V52.0204Z" fill="#A8E6CF"/>
<path d="M16.7718 45.7083H14.6677V47.8123H16.7718V45.7083Z" fill="#A8E6CF"/>
<path d="M16.7718 49.9164H14.6677V52.0204H16.7718V49.9164Z" fill="#58967F"/>
<path d="M16.7718 43.6042H14.6677V45.7083H16.7718V43.6042Z" fill="#A8E6CF"/>
<path d="M16.7718 47.8123H14.6677V49.9163H16.7718V47.8123Z" fill="#A8E6CF"/>
<path d="M18.8758 39.3961H16.7717V41.5002H18.8758V39.3961Z" fill="#A8E6CF"/>
<path d="M16.7718 41.5001H14.6677V43.6042H16.7718V41.5001Z" fill="#A8E6CF"/>
<path d="M14.6678 43.6042H12.5637V45.7083H14.6678V43.6042Z" fill="#58967F"/>
<path d="M12.5638 47.8123H10.4597V49.9163H12.5638V47.8123Z" fill="#A8E6CF"/>
<path d="M12.5638 45.7083H10.4597V47.8123H12.5638V45.7083Z" fill="#A8E6CF"/>
<path d="M12.5638 49.9164H10.4597V52.0204H12.5638V49.9164Z" fill="#A8E6CF"/>
<path d="M12.5638 52.0204H10.4597V54.1244H12.5638V52.0204Z" fill="#58967F"/>
<path d="M14.6678 54.1245H12.5637V56.2285H14.6678V54.1245Z" fill="#58967F"/>
<path d="M14.6678 52.0204H12.5637V54.1244H14.6678V52.0204Z" fill="#A8E6CF"/>
<path d="M63.0069 52.0204H60.9028V54.1244H63.0069V52.0204Z" fill="#0F0F12"/>
<path d="M63.0069 49.9164H60.9028V52.0204H63.0069V49.9164Z" fill="#0F0F12"/>
<path d="M63.0069 47.8123H60.9028V49.9163H63.0069V47.8123Z" fill="#0F0F12"/>
<path d="M63.0069 45.7083H60.9028V47.8123H63.0069V45.7083Z" fill="#0F0F12"/>
<path d="M60.9029 54.1245H58.7988V56.2285H60.9029V54.1245Z" fill="#0F0F12"/>
<path d="M60.9029 52.0204H58.7988V54.1244H60.9029V52.0204Z" fill="#A8E6CF"/>
<path d="M60.9029 49.9164H58.7988V52.0204H60.9029V49.9164Z" fill="#A8E6CF"/>
<path d="M60.9029 47.8123H58.7988V49.9163H60.9029V47.8123Z" fill="#A8E6CF"/>
<path d="M60.9029 45.7083H58.7988V47.8123H60.9029V45.7083Z" fill="#A8E6CF"/>
<path d="M58.7989 56.2285H56.6948V58.3326H58.7989V56.2285Z" fill="#0F0F12"/>
<path d="M58.7989 54.1245H56.6948V56.2285H58.7989V54.1245Z" fill="#A8E6CF"/>
<path d="M56.6949 56.2285H54.5908V58.3326H56.6949V56.2285Z" fill="#0F0F12"/>
<path d="M54.5909 56.2285H52.4868V58.3326H54.5909V56.2285Z" fill="#0F0F12"/>
<path d="M52.4869 56.2285H50.3828V58.3326H52.4869V56.2285Z" fill="#0F0F12"/>
<path d="M52.4869 52.0204H50.3828V54.1244H52.4869V52.0204Z" fill="#EAEAEA"/>
<path d="M52.4869 49.9164H50.3828V52.0204H52.4869V49.9164Z" fill="#0F0F12"/>
<path d="M52.4869 47.8123H50.3828V49.9163H52.4869V47.8123Z" fill="#EAEAEA"/>
<path d="M50.3826 56.2285H48.2786V58.3326H50.3826V56.2285Z" fill="#0F0F12"/>
<path d="M50.3826 52.0204H48.2786V54.1244H50.3826V52.0204Z" fill="#0F0F12"/>
<path d="M50.3826 45.7083H48.2786V47.8123H50.3826V45.7083Z" fill="#EAEAEA"/>
<path d="M48.2786 56.2285H46.1746V58.3326H48.2786V56.2285Z" fill="#0F0F12"/>
<path d="M48.2786 52.0204H46.1746V54.1244H48.2786V52.0204Z" fill="#EAEAEA"/>
<path d="M48.2786 49.9164H46.1746V52.0204H48.2786V49.9164Z" fill="#0F0F12"/>
<path d="M48.2786 47.8123H46.1746V49.9163H48.2786V47.8123Z" fill="#EAEAEA"/>
<path d="M46.1746 56.2285H44.0706V58.3326H46.1746V56.2285Z" fill="#0F0F12"/>
<path d="M46.1746 54.1245H44.0706V56.2285H46.1746V54.1245Z" fill="#EAEAEA"/>
<path d="M46.1746 52.0204H44.0706V54.1244H46.1746V52.0204Z" fill="#EAEAEA"/>
<path d="M46.1746 49.9164H44.0706V52.0204H46.1746V49.9164Z" fill="#0F0F12"/>
<path d="M46.1746 45.7083H44.0706V47.8123H46.1746V45.7083Z" fill="#EAEAEA"/>
<path d="M44.0706 56.2285H41.9666V58.3326H44.0706V56.2285Z" fill="#0F0F12"/>
<path d="M44.0706 54.1245H41.9666V56.2285H44.0706V54.1245Z" fill="#A8E6CF"/>
<path d="M44.0706 52.0204H41.9666V54.1244H44.0706V52.0204Z" fill="#EAEAEA"/>
<path d="M44.0706 49.9164H41.9666V52.0204H44.0706V49.9164Z" fill="#0F0F12"/>
<path d="M44.0706 47.8123H41.9666V49.9163H44.0706V47.8123Z" fill="#A8E6CF"/>
<path d="M44.0706 45.7083H41.9666V47.8123H44.0706V45.7083Z" fill="#EAEAEA"/>
<path d="M41.9666 56.2285H39.8625V58.3326H41.9666V56.2285Z" fill="#0F0F12"/>
<path d="M41.9666 54.1245H39.8625V56.2285H41.9666V54.1245Z" fill="#A8E6CF"/>
<path d="M41.9666 52.0204H39.8625V54.1244H41.9666V52.0204Z" fill="#A8E6CF"/>
<path d="M41.9666 49.9164H39.8625V52.0204H41.9666V49.9164Z" fill="#EAEAEA"/>
<path d="M41.9666 47.8123H39.8625V49.9163H41.9666V47.8123Z" fill="#A8E6CF"/>
<path d="M41.9666 45.7083H39.8625V47.8123H41.9666V45.7083Z" fill="#A8E6CF"/>
<path d="M39.8626 56.2285H37.7585V58.3326H39.8626V56.2285Z" fill="#0F0F12"/>
<path d="M39.8626 54.1245H37.7585V56.2285H39.8626V54.1245Z" fill="#58967F"/>
<path d="M39.8626 52.0204H37.7585V54.1244H39.8626V52.0204Z" fill="#A8E6CF"/>
<path d="M39.8626 49.9164H37.7585V52.0204H39.8626V49.9164Z" fill="#A8E6CF"/>
<path d="M39.8626 47.8123H37.7585V49.9163H39.8626V47.8123Z" fill="#A8E6CF"/>
<path d="M39.8626 45.7083H37.7585V47.8123H39.8626V45.7083Z" fill="#A8E6CF"/>
<path d="M37.7583 56.2285H35.6543V58.3326H37.7583V56.2285Z" fill="#0F0F12"/>
<path d="M37.7583 54.1245H35.6543V56.2285H37.7583V54.1245Z" fill="#A8E6CF"/>
<path d="M37.7583 52.0204H35.6543V54.1244H37.7583V52.0204Z" fill="#A8E6CF"/>
<path d="M37.7583 49.9164H35.6543V52.0204H37.7583V49.9164Z" fill="#58967F"/>
<path d="M37.7583 47.8123H35.6543V49.9163H37.7583V47.8123Z" fill="#A8E6CF"/>
<path d="M37.7583 45.7083H35.6543V47.8123H37.7583V45.7083Z" fill="#A8E6CF"/>
<path d="M35.6543 56.2285H33.5503V58.3326H35.6543V56.2285Z" fill="#0F0F12"/>
<path d="M35.6543 49.9164H33.5503V52.0204H35.6543V49.9164Z" fill="#A8E6CF"/>
<path d="M35.6543 47.8123H33.5503V49.9163H35.6543V47.8123Z" fill="#A8E6CF"/>
<path d="M35.6543 45.7083H33.5503V47.8123H35.6543V45.7083Z" fill="#A8E6CF"/>
<path d="M33.6043 56.2285H31.5002V58.3326H33.6043V56.2285Z" fill="#0F0F12"/>
<path d="M31.5003 56.2285H29.3962V58.3326H31.5003V56.2285Z" fill="#0F0F12"/>
<path d="M31.5003 54.1245H29.3962V56.2285H31.5003V54.1245Z" fill="#A8E6CF"/>
<path d="M31.5003 52.0204H29.3962V54.1244H31.5003V52.0204Z" fill="#A8E6CF"/>
<path d="M31.5003 49.9164H29.3962V52.0204H31.5003V49.9164Z" fill="#A8E6CF"/>
<path d="M31.5003 47.8123H29.3962V49.9163H31.5003V47.8123Z" fill="#A8E6CF"/>
<path d="M31.5003 45.7083H29.3962V47.8123H31.5003V45.7083Z" fill="#A8E6CF"/>
<path d="M29.396 56.2285H27.292V58.3326H29.396V56.2285Z" fill="#0F0F12"/>
<path d="M29.396 54.1245H27.292V56.2285H29.396V54.1245Z" fill="#A8E6CF"/>
<path d="M29.396 52.0204H27.292V54.1244H29.396V52.0204Z" fill="#A8E6CF"/>
<path d="M29.396 49.9164H27.292V52.0204H29.396V49.9164Z" fill="#A8E6CF"/>
<path d="M29.396 47.8123H27.292V49.9163H29.396V47.8123Z" fill="#A8E6CF"/>
<path d="M29.396 45.7083H27.292V47.8123H29.396V45.7083Z" fill="#A8E6CF"/>
<path d="M29.396 43.6042H27.292V45.7083H29.396V43.6042Z" fill="#A8E6CF"/>
<path d="M29.396 41.5001H27.292V43.6042H29.396V41.5001Z" fill="#A8E6CF"/>
<path d="M29.396 37.292H27.292V39.396H29.396V37.292Z" fill="#58967F"/>
<path d="M29.396 35.188H27.292V37.292H29.396V35.188Z" fill="#0F0F12"/>
<path d="M27.292 56.2285H25.188V58.3326H27.292V56.2285Z" fill="#0F0F12"/>
<path d="M27.292 54.1245H25.188V56.2285H27.292V54.1245Z" fill="#A8E6CF"/>
<path d="M27.292 52.0204H25.188V54.1244H27.292V52.0204Z" fill="#A8E6CF"/>
<path d="M27.292 49.9164H25.188V52.0204H27.292V49.9164Z" fill="#A8E6CF"/>
<path d="M27.292 47.8123H25.188V49.9163H27.292V47.8123Z" fill="#A8E6CF"/>
<path d="M27.292 45.7083H25.188V47.8123H27.292V45.7083Z" fill="#58967F"/>
<path d="M27.292 43.6042H25.188V45.7083H27.292V43.6042Z" fill="#58967F"/>
<path d="M27.292 41.5001H25.188V43.6042H27.292V41.5001Z" fill="#58967F"/>
<path d="M27.292 39.3961H25.188V41.5002H27.292V39.3961Z" fill="#58967F"/>
<path d="M27.292 37.292H25.188V39.396H27.292V37.292Z" fill="#58967F"/>
<path d="M27.292 35.188H25.188V37.292H27.292V35.188Z" fill="#0F0F12"/>
<path d="M33.6043 37.292H31.5002V39.396H33.6043V37.292Z" fill="#58967F"/>
<path d="M33.6043 35.188H31.5002V37.292H33.6043V35.188Z" fill="#0F0F12"/>
<path d="M31.5003 39.3961H29.3962V41.5002H31.5003V39.3961Z" fill="#58967F"/>
<path d="M31.5003 37.292H29.3962V39.396H31.5003V37.292Z" fill="#58967F"/>
<path d="M31.5003 35.188H29.3962V37.292H31.5003V35.188Z" fill="#0F0F12"/>
<path d="M25.188 56.2285H23.084V58.3326H25.188V56.2285Z" fill="#0F0F12"/>
<path d="M25.188 54.1245H23.084V56.2285H25.188V54.1245Z" fill="#A8E6CF"/>
<path d="M25.188 52.0204H23.084V54.1244H25.188V52.0204Z" fill="#A8E6CF"/>
<path d="M25.188 49.9164H23.084V52.0204H25.188V49.9164Z" fill="#A8E6CF"/>
<path d="M25.188 47.8123H23.084V49.9163H25.188V47.8123Z" fill="#A8E6CF"/>
<path d="M25.188 45.7083H23.084V47.8123H25.188V45.7083Z" fill="#A8E6CF"/>
<path d="M25.188 43.6042H23.084V45.7083H25.188V43.6042Z" fill="#A8E6CF"/>
<path d="M25.188 41.5001H23.084V43.6042H25.188V41.5001Z" fill="#A8E6CF"/>
<path d="M25.188 39.3961H23.084V41.5002H25.188V39.3961Z" fill="#A8E6CF"/>
<path d="M25.188 37.292H23.084V39.396H25.188V37.292Z" fill="#A8E6CF"/>
<path d="M25.188 35.188H23.084V37.292H25.188V35.188Z" fill="#0F0F12"/>
<path d="M23.084 56.2285H20.98V58.3326H23.084V56.2285Z" fill="#0F0F12"/>
<path d="M23.084 54.1245H20.98V56.2285H23.084V54.1245Z" fill="#0F0F12"/>
<path d="M23.084 52.0204H20.98V54.1244H23.084V52.0204Z" fill="#0F0F12"/>
<path d="M23.084 49.9164H20.98V52.0204H23.084V49.9164Z" fill="#A8E6CF"/>
<path d="M23.084 47.8123H20.98V49.9163H23.084V47.8123Z" fill="#A8E6CF"/>
<path d="M23.084 45.7083H20.98V47.8123H23.084V45.7083Z" fill="#A8E6CF"/>
<path d="M23.084 43.6042H20.98V45.7083H23.084V43.6042Z" fill="#A8E6CF"/>
<path d="M23.084 41.5001H20.98V43.6042H23.084V41.5001Z" fill="#A8E6CF"/>
<path d="M23.084 39.3961H20.98V41.5002H23.084V39.3961Z" fill="#A8E6CF"/>
<path d="M23.084 37.292H20.98V39.396H23.084V37.292Z" fill="#58967F"/>
<path d="M23.084 35.188H20.98V37.292H23.084V35.188Z" fill="#0F0F12"/>
<path d="M20.98 56.2285H18.876V58.3326H20.98V56.2285Z" fill="#0F0F12"/>
<path d="M20.98 54.1245H18.876V56.2285H20.98V54.1245Z" fill="#A8E6CF"/>
<path d="M20.98 52.0204H18.876V54.1244H20.98V52.0204Z" fill="#A8E6CF"/>
<path d="M20.98 49.9164H18.876V52.0204H20.98V49.9164Z" fill="#0F0F12"/>
<path d="M20.98 47.8123H18.876V49.9163H20.98V47.8123Z" fill="#58967F"/>
<path d="M20.98 45.7083H18.876V47.8123H20.98V45.7083Z" fill="#58967F"/>
<path d="M20.98 43.6042H18.876V45.7083H20.98V43.6042Z" fill="#58967F"/>
<path d="M20.98 41.5001H18.876V43.6042H20.98V41.5001Z" fill="#58967F"/>
<path d="M20.98 39.3961H18.876V41.5002H20.98V39.3961Z" fill="#58967F"/>
<path d="M20.98 37.292H18.876V39.396H20.98V37.292Z" fill="#A8E6CF"/>
<path d="M20.98 35.188H18.876V37.292H20.98V35.188Z" fill="#0F0F12"/>
<path d="M18.8758 56.2285H16.7717V58.3326H18.8758V56.2285Z" fill="#0F0F12"/>
<path d="M18.8758 37.292H16.7717V39.396H18.8758V37.292Z" fill="#0F0F12"/>
<path d="M16.7718 56.2285H14.6677V58.3326H16.7718V56.2285Z" fill="#0F0F12"/>
<path d="M16.7718 39.3961H14.6677V41.5002H16.7718V39.3961Z" fill="#0F0F12"/>
<path d="M14.6678 56.2285H12.5637V58.3326H14.6678V56.2285Z" fill="#0F0F12"/>
<path d="M14.6678 41.5001H12.5637V43.6042H14.6678V41.5001Z" fill="#0F0F12"/>
<path d="M14.6678 30.9799H12.5637V33.0839H14.6678V30.9799Z" fill="#0F0F12"/>
<path d="M14.6678 28.8759H12.5637V30.9799H14.6678V28.8759Z" fill="#0F0F12"/>
<path d="M14.6678 26.7717H12.5637V28.8758H14.6678V26.7717Z" fill="#0F0F12"/>
<path d="M12.5638 54.1245H10.4597V56.2285H12.5638V54.1245Z" fill="#0F0F12"/>
<path d="M12.5638 43.6042H10.4597V45.7083H12.5638V43.6042Z" fill="#0F0F12"/>
<path d="M12.5638 30.9799H10.4597V33.0839H12.5638V30.9799Z" fill="#0F0F12"/>
<path d="M12.5638 24.6677H10.4597V26.7718H12.5638V24.6677Z" fill="#0F0F12"/>
<path d="M10.4598 52.0204H8.35571V54.1244H10.4598V52.0204Z" fill="#0F0F12"/>
<path d="M10.4598 49.9164H8.35571V52.0204H10.4598V49.9164Z" fill="#0F0F12"/>
<path d="M10.4598 47.8123H8.35571V49.9163H10.4598V47.8123Z" fill="#0F0F12"/>
<path d="M10.4598 45.7083H8.35571V47.8123H10.4598V45.7083Z" fill="#0F0F12"/>
<path d="M10.4598 41.5001H8.35571V43.6042H10.4598V41.5001Z" fill="#0F0F12"/>
<path d="M10.4598 33.084H8.35571V35.188H10.4598V33.084Z" fill="#0F0F12"/>
<path d="M10.4598 24.6677H8.35571V26.7718H10.4598V24.6677Z" fill="#0F0F12"/>
<path d="M8.35552 45.7083H6.25146V47.8123H8.35552V45.7083Z" fill="#0F0F12"/>
<path d="M8.35552 39.3961H6.25146V41.5002H8.35552V39.3961Z" fill="#0F0F12"/>
<path d="M8.35552 37.292H6.25146V39.396H8.35552V37.292Z" fill="#0F0F12"/>
<path d="M8.35552 35.188H6.25146V37.292H8.35552V35.188Z" fill="#0F0F12"/>
<path d="M8.35552 26.7717H6.25146V28.8758H8.35552V26.7717Z" fill="#0F0F12"/>
<path d="M6.25151 43.6042H4.14746V45.7083H6.25151V43.6042Z" fill="#0F0F12"/>
<path d="M6.25151 28.8759H4.14746V30.9799H6.25151V28.8759Z" fill="#0F0F12"/>
<path d="M4.14751 41.5001H2.04346V43.6042H4.14751V41.5001Z" fill="#0F0F12"/>
<path d="M4.14751 39.3961H2.04346V41.5002H4.14751V39.3961Z" fill="#0F0F12"/>
<path d="M4.14751 37.292H2.04346V39.396H4.14751V37.292Z" fill="#0F0F12"/>
<path d="M4.14751 35.188H2.04346V37.292H4.14751V35.188Z" fill="#0F0F12"/>
<path d="M4.14751 33.084H2.04346V35.188H4.14751V33.084Z" fill="#0F0F12"/>
<path d="M4.14751 30.9799H2.04346V33.0839H4.14751V30.9799Z" fill="#0F0F12"/>
<path d="M35.7512 49.9164H33.5986V52.0204H35.7512V49.9164Z" fill="#0F0F12"/>
<path d="M33.7258 51.996H31.5732V54.1H33.7258V51.996Z" fill="#0F0F12"/>
<path d="M35.7512 45.7083H33.5986V47.8123H35.7512V45.7083Z" fill="#0F0F12"/>
<path d="M33.6891 43.592H31.5366V45.6961H33.6891V43.592Z" fill="#0F0F12"/>
<path d="M63.1582 56.2285H61.0542V58.3326H63.1582V56.2285Z" fill="#0F0F12"/>
<path d="M61.054 56.2285H58.95V58.3326H61.054V56.2285Z" fill="#0F0F12"/>
<path d="M58.95 56.2285H56.8459V58.3326H58.95V56.2285Z" fill="#0F0F12"/>
<path d="M56.846 56.2285H54.7419V58.3326H56.846V56.2285Z" fill="#0F0F12"/>
<path d="M67.3663 56.2285H65.2622V58.3326H67.3663V56.2285Z" fill="#0F0F12"/>
<path d="M65.2623 56.2285H63.1582V58.3326H65.2623V56.2285Z" fill="#0F0F12"/>
<path d="M54.742 56.2285H52.6379V58.3326H54.742V56.2285Z" fill="#0F0F12"/>
<path d="M52.638 56.2285H50.5339V58.3326H52.638V56.2285Z" fill="#0F0F12"/>
<path d="M50.5337 56.2285H48.4297V58.3326H50.5337V56.2285Z" fill="#0F0F12"/>
<path d="M48.4297 56.2285H46.3257V58.3326H48.4297V56.2285Z" fill="#0F0F12"/>
<path d="M46.3257 56.2285H44.2217V58.3326H46.3257V56.2285Z" fill="#0F0F12"/>
<path d="M44.2217 56.2285H42.1177V58.3326H44.2217V56.2285Z" fill="#0F0F12"/>
<path d="M42.1177 56.2285H40.0137V58.3326H42.1177V56.2285Z" fill="#0F0F12"/>
<path d="M40.0135 56.2285H37.9094V58.3326H40.0135V56.2285Z" fill="#0F0F12"/>
<path d="M37.9095 56.2285H35.8054V58.3326H37.9095V56.2285Z" fill="#0F0F12"/>
<path d="M37.9095 54.1245H35.8054V56.2285H37.9095V54.1245Z" fill="#A8E6CF"/>
<path d="M35.8055 56.2285H33.7014V58.3326H35.8055V56.2285Z" fill="#0F0F12"/>
<path d="M74.498 49.9164H72.3455V52.0204H74.498V49.9164Z" fill="#0F0F12"/>
<path d="M76.6506 49.9164H74.498V52.0204H76.6506V49.9164Z" fill="#0F0F12"/>
<path d="M74.498 52.0204H72.3455V54.1244H74.498V52.0204Z" fill="#EAEAEA"/>
<path d="M76.6506 52.0204H74.498V54.1244H76.6506V52.0204Z" fill="#EAEAEA"/>
<path d="M78.8032 52.0204H76.6506V54.1244H78.8032V52.0204Z" fill="#0F0F12"/>
<path d="M80.9557 54.1245H78.8032V56.2285H80.9557V54.1245Z" fill="#0F0F12"/>
<path d="M80.9557 56.2285H78.8032V58.3326H80.9557V56.2285Z" fill="#0F0F12"/>
<path d="M78.8032 56.2285H76.6506V58.3326H78.8032V56.2285Z" fill="#0F0F12"/>
<path d="M76.6506 56.2285H74.498V58.3326H76.6506V56.2285Z" fill="#0F0F12"/>
<path d="M74.498 56.2285H72.3455V58.3326H74.498V56.2285Z" fill="#0F0F12"/>
<path d="M72.3454 56.2285H70.1929V58.3326H72.3454V56.2285Z" fill="#0F0F12"/>
<path d="M70.1928 56.2285H68.0403V58.3326H70.1928V56.2285Z" fill="#0F0F12"/>
<path d="M68.0402 56.2285H65.8877V58.3326H68.0402V56.2285Z" fill="#0F0F12"/>
<path d="M74.498 43.6042H72.3455V45.7083H74.498V43.6042Z" fill="#0F0F12"/>
<path d="M72.3454 49.9164H70.1929V52.0204H72.3454V49.9164Z" fill="#0F0F12"/>
<path d="M72.3454 47.8123H70.1929V49.9163H72.3454V47.8123Z" fill="#0F0F12"/>
<path d="M72.3454 45.7083H70.1929V47.8123H72.3454V45.7083Z" fill="#0F0F12"/>
<path d="M72.3454 37.292H70.1929V39.396H72.3454V37.292Z" fill="#0F0F12"/>
<path d="M72.3454 35.188H70.1929V37.292H72.3454V35.188Z" fill="#0F0F12"/>
<path d="M72.3454 33.084H70.1929V35.188H72.3454V33.084Z" fill="#0F0F12"/>
<path d="M72.3454 30.9799H70.1929V33.0839H72.3454V30.9799Z" fill="#0F0F12"/>
<path d="M70.1928 52.0204H68.0403V54.1244H70.1928V52.0204Z" fill="#0F0F12"/>
<path d="M72.3454 52.0204H70.1929V54.1244H72.3454V52.0204Z" fill="#0F0F12"/>
<path d="M70.1928 49.9164H68.0403V52.0204H70.1928V49.9164Z" fill="#58967F"/>
<path d="M70.1928 47.8123H68.0403V49.9163H70.1928V47.8123Z" fill="#A8E6CF"/>
<path d="M70.1928 45.7083H68.0403V47.8123H70.1928V45.7083Z" fill="#58967F"/>
<path d="M70.1928 43.6042H68.0403V45.7083H70.1928V43.6042Z" fill="#0F0F12"/>
<path d="M70.1928 41.5001H68.0403V43.6042H70.1928V41.5001Z" fill="#0F0F12"/>
<path d="M70.1928 39.3961H68.0403V41.5002H70.1928V39.3961Z" fill="#0F0F12"/>
<path d="M70.1928 37.292H68.0403V39.396H70.1928V37.292Z" fill="#EAEAEA"/>
<path d="M70.1928 35.188H68.0403V37.292H70.1928V35.188Z" fill="#EAEAEA"/>
<path d="M70.1928 33.084H68.0403V35.188H70.1928V33.084Z" fill="#EAEAEA"/>
<path d="M70.1928 30.9799H68.0403V33.0839H70.1928V30.9799Z" fill="#EAEAEA"/>
<path d="M70.1928 28.8759H68.0403V30.9799H70.1928V28.8759Z" fill="#0F0F12"/>
<path d="M68.0402 54.1245H65.8877V56.2285H68.0402V54.1245Z" fill="#0F0F12"/>
<path d="M70.1928 54.1245H68.0403V56.2285H70.1928V54.1245Z" fill="#EAEAEA"/>
<path d="M72.3454 54.1245H70.1929V56.2285H72.3454V54.1245Z" fill="#EAEAEA"/>
<path d="M74.498 54.1245H72.3455V56.2285H74.498V54.1245Z" fill="#EAEAEA"/>
<path d="M76.6506 54.1245H74.498V56.2285H76.6506V54.1245Z" fill="#EAEAEA"/>
<path d="M78.8032 54.1245H76.6506V56.2285H78.8032V54.1245Z" fill="#EAEAEA"/>
<path d="M68.0402 52.0204H65.8877V54.1244H68.0402V52.0204Z" fill="#A8E6CF"/>
<path d="M68.0402 49.9164H65.8877V52.0204H68.0402V49.9164Z" fill="#58967F"/>
<path d="M68.0402 47.8123H65.8877V49.9163H68.0402V47.8123Z" fill="#A8E6CF"/>
<path d="M68.0402 45.7083H65.8877V47.8123H68.0402V45.7083Z" fill="#58967F"/>
<path d="M68.0402 43.6042H65.8877V45.7083H68.0402V43.6042Z" fill="#A8E6CF"/>
<path d="M68.0402 41.5001H65.8877V43.6042H68.0402V41.5001Z" fill="#A8E6CF"/>
<path d="M68.0402 39.3961H65.8877V41.5002H68.0402V39.3961Z" fill="#A8E6CF"/>
<path d="M68.0402 37.292H65.8877V39.396H68.0402V37.292Z" fill="#0F0F12"/>
<path d="M68.0402 35.188H65.8877V37.292H68.0402V35.188Z" fill="#EAEAEA"/>
<path d="M68.0402 33.084H65.8877V35.188H68.0402V33.084Z" fill="#EAEAEA"/>
<path d="M68.0402 30.9799H65.8877V33.0839H68.0402V30.9799Z" fill="#0F0F12"/>
<path d="M65.8876 54.1245H63.7351V56.2285H65.8876V54.1245Z" fill="#EAEAEA"/>
<path d="M65.8876 52.0204H63.7351V54.1244H65.8876V52.0204Z" fill="#EAEAEA"/>
<path d="M65.8876 49.9164H63.7351V52.0204H65.8876V49.9164Z" fill="#A8E6CF"/>
<path d="M65.8876 47.8123H63.7351V49.9163H65.8876V47.8123Z" fill="#A8E6CF"/>
<path d="M65.8876 45.7083H63.7351V47.8123H65.8876V45.7083Z" fill="#A8E6CF"/>
<path d="M65.8876 43.6042H63.7351V45.7083H65.8876V43.6042Z" fill="#A8E6CF"/>
<path d="M65.8876 41.5001H63.7351V43.6042H65.8876V41.5001Z" fill="#A8E6CF"/>
<path d="M65.8876 39.3961H63.7351V41.5002H65.8876V39.3961Z" fill="#A8E6CF"/>
<path d="M65.8876 37.292H63.7351V39.396H65.8876V37.292Z" fill="#A8E6CF"/>
<path d="M65.8876 35.188H63.7351V37.292H65.8876V35.188Z" fill="#0F0F12"/>
<path d="M65.8876 33.084H63.7351V35.188H65.8876V33.084Z" fill="#0F0F12"/>
<path d="M63.735 54.1245H61.5825V56.2285H63.735V54.1245Z" fill="#EAEAEA"/>
<path d="M63.735 52.0204H61.5825V54.1244H63.735V52.0204Z" fill="#EAEAEA"/>
<path d="M63.735 49.9164H61.5825V52.0204H63.735V49.9164Z" fill="#EAEAEA"/>
<path d="M63.735 47.8123H61.5825V49.9163H63.735V47.8123Z" fill="#A8E6CF"/>
<path d="M63.735 45.7083H61.5825V47.8123H63.735V45.7083Z" fill="#0F0F12"/>
<path d="M63.735 43.6042H61.5825V45.7083H63.735V43.6042Z" fill="#0F0F12"/>
<path d="M63.735 41.5001H61.5825V43.6042H63.735V41.5001Z" fill="#A8E6CF"/>
<path d="M63.735 39.3961H61.5825V41.5002H63.735V39.3961Z" fill="#A8E6CF"/>
<path d="M63.735 37.292H61.5825V39.396H63.735V37.292Z" fill="#A8E6CF"/>
<path d="M63.735 35.188H61.5825V37.292H63.735V35.188Z" fill="#A8E6CF"/>
<path d="M63.735 33.084H61.5825V35.188H63.735V33.084Z" fill="#0F0F12"/>
<path d="M61.5825 54.1245H59.4299V56.2285H61.5825V54.1245Z" fill="#EAEAEA"/>
<path d="M61.5825 52.0204H59.4299V54.1244H61.5825V52.0204Z" fill="#EAEAEA"/>
<path d="M61.5825 49.9164H59.4299V52.0204H61.5825V49.9164Z" fill="#EAEAEA"/>
<path d="M61.5825 47.8123H59.4299V49.9163H61.5825V47.8123Z" fill="#A8E6CF"/>
<path d="M61.5825 45.7083H59.4299V47.8123H61.5825V45.7083Z" fill="#0F0F12"/>
<path d="M61.5825 43.6042H59.4299V45.7083H61.5825V43.6042Z" fill="#0F0F12"/>
<path d="M61.5825 41.5001H59.4299V43.6042H61.5825V41.5001Z" fill="#A8E6CF"/>
<path d="M61.5825 39.3961H59.4299V41.5002H61.5825V39.3961Z" fill="#58967F"/>
<path d="M61.5825 37.292H59.4299V39.396H61.5825V37.292Z" fill="#58967F"/>
<path d="M61.5825 35.188H59.4299V37.292H61.5825V35.188Z" fill="#58967F"/>
<path d="M61.5825 33.084H59.4299V35.188H61.5825V33.084Z" fill="#0F0F12"/>
<path d="M59.4299 54.1245H57.2773V56.2285H59.4299V54.1245Z" fill="#EAEAEA"/>
<path d="M59.4299 52.0204H57.2773V54.1244H59.4299V52.0204Z" fill="#EAEAEA"/>
<path d="M59.4299 49.9164H57.2773V52.0204H59.4299V49.9164Z" fill="#EAEAEA"/>
<path d="M59.4299 47.8123H57.2773V49.9163H59.4299V47.8123Z" fill="#A8E6CF"/>
<path d="M59.4299 45.7083H57.2773V47.8123H59.4299V45.7083Z" fill="#A8E6CF"/>
<path d="M59.4299 43.6042H57.2773V45.7083H59.4299V43.6042Z" fill="#A8E6CF"/>
<path d="M59.4299 41.5001H57.2773V43.6042H59.4299V41.5001Z" fill="#A8E6CF"/>
<path d="M59.4299 39.3961H57.2773V41.5002H59.4299V39.3961Z" fill="#A8E6CF"/>
<path d="M59.4299 37.292H57.2773V39.396H59.4299V37.292Z" fill="#A8E6CF"/>
<path d="M59.4299 35.188H57.2773V37.292H59.4299V35.188Z" fill="#A8E6CF"/>
<path d="M59.4299 33.084H57.2773V35.188H59.4299V33.084Z" fill="#0F0F12"/>
<path d="M57.2773 54.1245H55.1248V56.2285H57.2773V54.1245Z" fill="#EAEAEA"/>
<path d="M57.2773 52.0204H55.1248V54.1244H57.2773V52.0204Z" fill="#EAEAEA"/>
<path d="M57.2773 49.9164H55.1248V52.0204H57.2773V49.9164Z" fill="#EAEAEA"/>
<path d="M57.2773 47.8123H55.1248V49.9163H57.2773V47.8123Z" fill="#EAEAEA"/>
<path d="M57.2773 45.7083H55.1248V47.8123H57.2773V45.7083Z" fill="#EAEAEA"/>
<path d="M57.2773 43.6042H55.1248V45.7083H57.2773V43.6042Z" fill="#A8E6CF"/>
<path d="M57.2773 41.5001H55.1248V43.6042H57.2773V41.5001Z" fill="#A8E6CF"/>
<path d="M57.2773 39.3961H55.1248V41.5002H57.2773V39.3961Z" fill="#A8E6CF"/>
<path d="M57.2773 37.292H55.1248V39.396H57.2773V37.292Z" fill="#58967F"/>
<path d="M57.2773 35.188H55.1248V37.292H57.2773V35.188Z" fill="#58967F"/>
<path d="M57.2773 33.084H55.1248V35.188H57.2773V33.084Z" fill="#0F0F12"/>
<path d="M55.1247 54.0635H52.9722V56.1676H55.1247V54.0635Z" fill="#0F0F12"/>
<path d="M55.1247 52.0204H52.9722V54.1244H55.1247V52.0204Z" fill="#EAEAEA"/>
<path d="M55.1247 49.9164H52.9722V52.0204H55.1247V49.9164Z" fill="#EAEAEA"/>
<path d="M55.1247 47.8123H52.9722V49.9163H55.1247V47.8123Z" fill="#EAEAEA"/>
<path d="M55.1247 45.7083H52.9722V47.8123H55.1247V45.7083Z" fill="#ED7793"/>
<path d="M55.1247 43.6042H52.9722V45.7083H55.1247V43.6042Z" fill="#EAEAEA"/>
<path d="M55.1247 41.5001H52.9722V43.6042H55.1247V41.5001Z" fill="#EAEAEA"/>
<path d="M55.1247 39.3961H52.9722V41.5002H55.1247V39.3961Z" fill="#EAEAEA"/>
<path d="M55.1247 37.292H52.9722V39.396H55.1247V37.292Z" fill="#EAEAEA"/>
<path d="M55.1247 35.188H52.9722V37.292H55.1247V35.188Z" fill="#A8E6CF"/>
<path d="M55.1247 33.084H52.9722V35.188H55.1247V33.084Z" fill="#0F0F12"/>
<path d="M52.9721 54.1245H50.8196V56.2285H52.9721V54.1245Z" fill="#EAEAEA"/>
<path d="M52.9721 51.9595H50.8196V54.0635H52.9721V51.9595Z" fill="#0F0F12"/>
<path d="M52.9721 49.9164H50.8196V52.0204H52.9721V49.9164Z" fill="#EAEAEA"/>
<path d="M52.9721 47.8123H50.8196V49.9163H52.9721V47.8123Z" fill="#EAEAEA"/>
<path d="M52.9721 45.7083H50.8196V47.8123H52.9721V45.7083Z" fill="#ED7793"/>
<path d="M52.9721 43.6042H50.8196V45.7083H52.9721V43.6042Z" fill="#EAEAEA"/>
<path d="M52.9721 41.5001H50.8196V43.6042H52.9721V41.5001Z" fill="#EAEAEA"/>
<path d="M52.9721 39.3961H50.8196V41.5002H52.9721V39.3961Z" fill="#EAEAEA"/>
<path d="M52.9721 37.292H50.8196V39.396H52.9721V37.292Z" fill="#EAEAEA"/>
<path d="M52.9721 35.188H50.8196V37.292H52.9721V35.188Z" fill="#A8E6CF"/>
<path d="M52.9721 33.084H50.8196V35.188H52.9721V33.084Z" fill="#0F0F12"/>
<path d="M50.8195 54.1245H48.667V56.2285H50.8195V54.1245Z" fill="#EAEAEA"/>
<path d="M50.8195 52.0204H48.667V54.1244H50.8195V52.0204Z" fill="#EAEAEA"/>
<path d="M50.8195 49.9164H48.667V51.9595H50.8195V49.9164Z" fill="#0F0F12"/>
<path d="M50.8195 47.8123H48.667V49.9163H50.8195V47.8123Z" fill="#EAEAEA"/>
<path d="M50.8195 45.7083H48.667V47.8123H50.8195V45.7083Z" fill="#EAEAEA"/>
<path d="M50.8195 43.6042H48.667V45.7083H50.8195V43.6042Z" fill="#A8E6CF"/>
<path d="M50.8195 41.5001H48.667V43.6042H50.8195V41.5001Z" fill="#A8E6CF"/>
<path d="M50.8195 39.3961H48.667V41.5002H50.8195V39.3961Z" fill="#A8E6CF"/>
<path d="M50.8195 37.292H48.667V39.396H50.8195V37.292Z" fill="#58967F"/>
<path d="M50.8195 35.188H48.667V37.292H50.8195V35.188Z" fill="#58967F"/>
<path d="M50.8195 33.084H48.667V35.188H50.8195V33.084Z" fill="#0F0F12"/>
<path d="M48.6669 54.1245H46.5144V56.2285H48.6669V54.1245Z" fill="#EAEAEA"/>
<path d="M48.6669 52.0204H46.5144V54.1244H48.6669V52.0204Z" fill="#EAEAEA"/>
<path d="M48.6669 49.8554H46.5144V51.9595H48.6669V49.8554Z" fill="#0F0F12"/>
<path d="M48.6669 47.8123H46.5144V49.9163H48.6669V47.8123Z" fill="#A8E6CF"/>
<path d="M48.6669 45.7083H46.5144V47.8123H48.6669V45.7083Z" fill="#A8E6CF"/>
<path d="M48.6669 43.6042H46.5144V45.7083H48.6669V43.6042Z" fill="#A8E6CF"/>
<path d="M48.6669 41.5001H46.5144V43.6042H48.6669V41.5001Z" fill="#A8E6CF"/>
<path d="M48.6669 39.3961H46.5144V41.5002H48.6669V39.3961Z" fill="#A8E6CF"/>
<path d="M48.6669 37.292H46.5144V39.396H48.6669V37.292Z" fill="#A8E6CF"/>
<path d="M48.6669 35.188H46.5144V37.292H48.6669V35.188Z" fill="#A8E6CF"/>
<path d="M48.6669 33.084H46.5144V35.188H48.6669V33.084Z" fill="#0F0F12"/>
<path d="M46.5141 54.1245H44.3616V56.2285H46.5141V54.1245Z" fill="#EAEAEA"/>
<path d="M46.5141 52.0204H44.3616V54.1244H46.5141V52.0204Z" fill="#EAEAEA"/>
<path d="M46.5141 49.8554H44.3616V51.9595H46.5141V49.8554Z" fill="#0F0F12"/>
<path d="M46.5141 47.8123H44.3616V49.9163H46.5141V47.8123Z" fill="#A8E6CF"/>
<path d="M46.5141 45.7083H44.3616V47.8123H46.5141V45.7083Z" fill="#0F0F12"/>
<path d="M46.5141 43.6042H44.3616V45.7083H46.5141V43.6042Z" fill="#0F0F12"/>
<path d="M46.5141 41.5001H44.3616V43.6042H46.5141V41.5001Z" fill="#A8E6CF"/>
<path d="M46.5141 39.3961H44.3616V41.5002H46.5141V39.3961Z" fill="#58967F"/>
<path d="M46.5141 37.292H44.3616V39.396H46.5141V37.292Z" fill="#58967F"/>
<path d="M46.5141 35.188H44.3616V37.292H46.5141V35.188Z" fill="#58967F"/>
<path d="M46.5141 33.084H44.3616V35.188H46.5141V33.084Z" fill="#0F0F12"/>
<path d="M44.3617 54.1245H42.2092V56.2285H44.3617V54.1245Z" fill="#EAEAEA"/>
<path d="M44.3617 52.0204H42.2092V54.1244H44.3617V52.0204Z" fill="#EAEAEA"/>
<path d="M44.3617 49.9164H42.2092V52.0204H44.3617V49.9164Z" fill="#0F0F12"/>
<path d="M44.3617 47.8123H42.2092V49.9163H44.3617V47.8123Z" fill="#A8E6CF"/>
<path d="M44.3617 45.7083H42.2092V47.8123H44.3617V45.7083Z" fill="#0F0F12"/>
<path d="M44.3617 43.6042H42.2092V45.7083H44.3617V43.6042Z" fill="#0F0F12"/>
<path d="M44.3617 41.5001H42.2092V43.6042H44.3617V41.5001Z" fill="#A8E6CF"/>
<path d="M44.3617 39.3961H42.2092V41.5002H44.3617V39.3961Z" fill="#A8E6CF"/>
<path d="M44.3617 37.292H42.2092V39.396H44.3617V37.292Z" fill="#A8E6CF"/>
<path d="M44.3617 35.188H42.2092V37.292H44.3617V35.188Z" fill="#A8E6CF"/>
<path d="M44.3617 33.084H42.2092V35.188H44.3617V33.084Z" fill="#0F0F12"/>
<path d="M42.2092 54.1245H40.0566V56.2285H42.2092V54.1245Z" fill="#EAEAEA"/>
<path d="M42.2092 52.0204H40.0566V54.1244H42.2092V52.0204Z" fill="#EAEAEA"/>
<path d="M42.2092 49.9164H40.0566V52.0204H42.2092V49.9164Z" fill="#A8E6CF"/>
<path d="M42.2092 47.8123H40.0566V49.9163H42.2092V47.8123Z" fill="#A8E6CF"/>
<path d="M42.2092 45.7083H40.0566V47.8123H42.2092V45.7083Z" fill="#A8E6CF"/>
<path d="M42.2092 43.6042H40.0566V45.7083H42.2092V43.6042Z" fill="#A8E6CF"/>
<path d="M42.2092 41.5001H40.0566V43.6042H42.2092V41.5001Z" fill="#A8E6CF"/>
<path d="M42.2092 39.3961H40.0566V41.5002H42.2092V39.3961Z" fill="#A8E6CF"/>
<path d="M42.2092 37.292H40.0566V39.396H42.2092V37.292Z" fill="#A8E6CF"/>
<path d="M42.2092 35.188H40.0566V37.292H42.2092V35.188Z" fill="#0F0F12"/>
<path d="M42.2092 33.084H40.0566V35.188H42.2092V33.084Z" fill="#0F0F12"/>
<path d="M40.0566 54.1245H37.9041V56.2285H40.0566V54.1245Z" fill="#A8E6CF"/>
<path d="M40.0566 52.0204H37.9041V54.1244H40.0566V52.0204Z" fill="#A8E6CF"/>
<path d="M40.0566 49.9164H37.9041V52.0204H40.0566V49.9164Z" fill="#58967F"/>
<path d="M40.0566 47.8123H37.9041V49.9163H40.0566V47.8123Z" fill="#A8E6CF"/>
<path d="M40.0566 45.7083H37.9041V47.8123H40.0566V45.7083Z" fill="#58967F"/>
<path d="M40.0566 43.6042H37.9041V45.7083H40.0566V43.6042Z" fill="#A8E6CF"/>
<path d="M40.0566 41.5001H37.9041V43.6042H40.0566V41.5001Z" fill="#A8E6CF"/>
<path d="M40.0566 39.3961H37.9041V41.5002H40.0566V39.3961Z" fill="#A8E6CF"/>
<path d="M40.0566 37.292H37.9041V39.396H40.0566V37.292Z" fill="#0F0F12"/>
<path d="M40.0566 35.188H37.9041V37.292H40.0566V35.188Z" fill="#EAEAEA"/>
<path d="M40.0566 33.084H37.9041V35.188H40.0566V33.084Z" fill="#EAEAEA"/>
<path d="M40.0566 30.9799H37.9041V33.0839H40.0566V30.9799Z" fill="#0F0F12"/>
<path d="M37.904 52.0204H35.7515V54.1244H37.904V52.0204Z" fill="#A8E6CF"/>
<path d="M37.904 49.9164H35.7515V52.0204H37.904V49.9164Z" fill="#58967F"/>
<path d="M37.904 47.8123H35.7515V49.9163H37.904V47.8123Z" fill="#A8E6CF"/>
<path d="M37.904 45.7083H35.7515V47.8123H37.904V45.7083Z" fill="#58967F"/>
<path d="M37.904 43.6042H35.7515V45.7083H37.904V43.6042Z" fill="#0F0F12"/>
<path d="M37.904 41.5001H35.7515V43.6042H37.904V41.5001Z" fill="#0F0F12"/>
<path d="M37.904 39.3961H35.7515V41.5002H37.904V39.3961Z" fill="#0F0F12"/>
<path d="M37.904 37.292H35.7515V39.396H37.904V37.292Z" fill="#EAEAEA"/>
<path d="M37.904 35.188H35.7515V37.292H37.904V35.188Z" fill="#EAEAEA"/>
<path d="M37.904 33.084H35.7515V35.188H37.904V33.084Z" fill="#EAEAEA"/>
<path d="M37.904 30.9799H35.7515V33.0839H37.904V30.9799Z" fill="#EAEAEA"/>
<path d="M37.904 28.8759H35.7515V30.9799H37.904V28.8759Z" fill="#0F0F12"/>
<path d="M35.7512 47.8123H33.5986V49.9163H35.7512V47.8123Z" fill="#0F0F12"/>
<path d="M35.7512 39.3961H33.5986V41.5002H35.7512V39.3961Z" fill="#0F0F12"/>
<path d="M35.7512 37.292H33.5986V39.396H35.7512V37.292Z" fill="#0F0F12"/>
<path d="M35.7512 35.188H33.5986V37.292H35.7512V35.188Z" fill="#0F0F12"/>
<path d="M35.7512 33.084H33.5986V35.188H35.7512V33.084Z" fill="#0F0F12"/>
<path d="M35.7512 30.9799H33.5986V33.0839H35.7512V30.9799Z" fill="#0F0F12"/>
</svg>
