<svg width="36" height="30" viewBox="0 0 36 30" fill="none" xmlns="http://www.w3.org/2000/svg">
<path d="M36.0002 18.3333H34.2002V19.9999H36.0002V18.3333Z" fill="#0F0F12"/>
<path d="M36.0002 11.6666H34.2002V13.3333H36.0002V11.6666Z" fill="#0F0F12"/>
<path d="M34.1994 16.6667H32.3994V18.3334H34.1994V16.6667Z" fill="#0F0F12"/>
<path d="M34.1994 15H32.3994V16.6667H34.1994V15Z" fill="#0F0F12"/>
<path d="M34.1994 13.3334H32.3994V15H34.1994V13.3334Z" fill="#0F0F12"/>
<path d="M34.1994 6.66675H32.3994V8.33342H34.1994V6.66675Z" fill="#0F0F12"/>
<path d="M34.1994 4.99988H32.3994V6.66655H34.1994V4.99988Z" fill="#0F0F12"/>
<path d="M34.1994 3.33337H32.3994V5.00004H34.1994V3.33337Z" fill="#0F0F12"/>
<path d="M34.1994 1.66663H32.3994V3.33329H34.1994V1.66663Z" fill="#0F0F12"/>
<path d="M32.4001 18.3333H30.6001V19.9999H32.4001V18.3333Z" fill="#0F0F12"/>
<path d="M32.4001 16.6667H30.6001V18.3334H32.4001V16.6667Z" fill="#9B8500"/>
<path d="M32.4001 15H30.6001V16.6667H32.4001V15Z" fill="#F5B700"/>
<path d="M32.4001 13.3334H30.6001V15H32.4001V13.3334Z" fill="#9B8500"/>
<path d="M32.4001 11.6666H30.6001V13.3333H32.4001V11.6666Z" fill="#0F0F12"/>
<path d="M32.4001 10H30.6001V11.6667H32.4001V10Z" fill="#0F0F12"/>
<path d="M32.4001 8.33325H30.6001V9.99992H32.4001V8.33325Z" fill="#0F0F12"/>
<path d="M32.4001 6.66675H30.6001V8.33342H32.4001V6.66675Z" fill="#EAEAEA"/>
<path d="M32.4001 4.99988H30.6001V6.66655H32.4001V4.99988Z" fill="#EAEAEA"/>
<path d="M32.4001 3.33337H30.6001V5.00004H32.4001V3.33337Z" fill="#EAEAEA"/>
<path d="M32.4001 1.66663H30.6001V3.33329H32.4001V1.66663Z" fill="#EAEAEA"/>
<path d="M32.4001 0H30.6001V1.66667H32.4001V0Z" fill="#0F0F12"/>
<path d="M30.5993 20.0001H28.7993V21.6668H30.5993V20.0001Z" fill="#0F0F12"/>
<path d="M30.5993 18.3333H28.7993V19.9999H30.5993V18.3333Z" fill="#F5B700"/>
<path d="M30.5993 16.6667H28.7993V18.3334H30.5993V16.6667Z" fill="#9B8500"/>
<path d="M30.5993 15H28.7993V16.6667H30.5993V15Z" fill="#F5B700"/>
<path d="M30.5993 13.3334H28.7993V15H30.5993V13.3334Z" fill="#9B8500"/>
<path d="M30.5993 11.6666H28.7993V13.3333H30.5993V11.6666Z" fill="#F5B700"/>
<path d="M30.5993 10H28.7993V11.6667H30.5993V10Z" fill="#F5B700"/>
<path d="M30.5993 8.33325H28.7993V9.99992H30.5993V8.33325Z" fill="#F5B700"/>
<path d="M30.5993 6.66675H28.7993V8.33342H30.5993V6.66675Z" fill="#0F0F12"/>
<path d="M30.5993 4.99988H28.7993V6.66655H30.5993V4.99988Z" fill="#EAEAEA"/>
<path d="M30.5993 3.33337H28.7993V5.00004H30.5993V3.33337Z" fill="#EAEAEA"/>
<path d="M30.5993 1.66663H28.7993V3.33329H30.5993V1.66663Z" fill="#0F0F12"/>
<path d="M28.8 21.6666H27V23.3333H28.8V21.6666Z" fill="#0F0F12"/>
<path d="M28.8 25H27V26.6667H28.8V25Z" fill="#0F0F12"/>
<path d="M28.8 20.0001H27V21.6668H28.8V20.0001Z" fill="#EAEAEA"/>
<path d="M28.8 18.3333H27V19.9999H28.8V18.3333Z" fill="#EAEAEA"/>
<path d="M28.8 16.6667H27V18.3334H28.8V16.6667Z" fill="#F5B700"/>
<path d="M28.8 15H27V16.6667H28.8V15Z" fill="#F5B700"/>
<path d="M28.8 13.3334H27V15H28.8V13.3334Z" fill="#F5B700"/>
<path d="M28.8 11.6666H27V13.3333H28.8V11.6666Z" fill="#F5B700"/>
<path d="M28.8 10H27V11.6667H28.8V10Z" fill="#F5B700"/>
<path d="M28.8 8.33325H27V9.99992H28.8V8.33325Z" fill="#F5B700"/>
<path d="M28.8 6.66675H27V8.33342H28.8V6.66675Z" fill="#F5B700"/>
<path d="M28.8 4.99988H27V6.66655H28.8V4.99988Z" fill="#0F0F12"/>
<path d="M28.8 3.33337H27V5.00004H28.8V3.33337Z" fill="#0F0F12"/>
<path d="M26.9997 21.6666H25.1997V23.3333H26.9997V21.6666Z" fill="#0F0F12"/>
<path d="M26.9997 23.3334H25.1997V25H26.9997V23.3334Z" fill="#0F0F12"/>
<path d="M26.9997 20.0001H25.1997V21.6668H26.9997V20.0001Z" fill="#EAEAEA"/>
<path d="M26.9997 18.3333H25.1997V19.9999H26.9997V18.3333Z" fill="#EAEAEA"/>
<path d="M26.9997 16.6667H25.1997V18.3334H26.9997V16.6667Z" fill="#EAEAEA"/>
<path d="M26.9997 15H25.1997V16.6667H26.9997V15Z" fill="#F5B700"/>
<path d="M26.9997 13.3334H25.1997V15H26.9997V13.3334Z" fill="#0F0F12"/>
<path d="M26.9997 11.6666H25.1997V13.3333H26.9997V11.6666Z" fill="#EAEAEA"/>
<path d="M26.9997 10H25.1997V11.6667H26.9997V10Z" fill="#F5B700"/>
<path d="M26.9997 8.33325H25.1997V9.99992H26.9997V8.33325Z" fill="#F5B700"/>
<path d="M26.9997 6.66675H25.1997V8.33342H26.9997V6.66675Z" fill="#F5B700"/>
<path d="M26.9997 4.99988H25.1997V6.66655H26.9997V4.99988Z" fill="#F5B700"/>
<path d="M26.9997 3.33337H25.1997V5.00004H26.9997V3.33337Z" fill="#0F0F12"/>
<path d="M25.1999 25H23.3999V26.6667H25.1999V25Z" fill="#F5B700"/>
<path d="M26.9997 25H25.1997V26.6667H26.9997V25Z" fill="#F5B700"/>
<path d="M25.1999 23.3334H23.3999V25H25.1999V23.3334Z" fill="#F5B700"/>
<path d="M25.1999 21.6666H23.3999V23.3333H25.1999V21.6666Z" fill="#0F0F12"/>
<path d="M25.1999 20.0001H23.3999V21.6668H25.1999V20.0001Z" fill="#EAEAEA"/>
<path d="M25.1999 18.3333H23.3999V19.9999H25.1999V18.3333Z" fill="#EAEAEA"/>
<path d="M25.1999 16.6667H23.3999V18.3334H25.1999V16.6667Z" fill="#EAEAEA"/>
<path d="M25.1999 15H23.3999V16.6667H25.1999V15Z" fill="#F5B700"/>
<path d="M25.1999 13.3334H23.3999V15H25.1999V13.3334Z" fill="#0F0F12"/>
<path d="M25.1999 11.6666H23.3999V13.3333H25.1999V11.6666Z" fill="#0F0F12"/>
<path d="M25.1999 10H23.3999V11.6667H25.1999V10Z" fill="#F5B700"/>
<path d="M25.1999 8.33325H23.3999V9.99992H25.1999V8.33325Z" fill="#9B8500"/>
<path d="M25.1999 6.66675H23.3999V8.33342H25.1999V6.66675Z" fill="#9B8500"/>
<path d="M25.1999 4.99988H23.3999V6.66655H25.1999V4.99988Z" fill="#9B8500"/>
<path d="M25.1999 3.33337H23.3999V5.00004H25.1999V3.33337Z" fill="#0F0F12"/>
<path d="M23.3996 25H21.5996V26.6667H23.3996V25Z" fill="#F5B700"/>
<path d="M23.3996 23.3334H21.5996V25H23.3996V23.3334Z" fill="#F5B700"/>
<path d="M23.3996 21.6666H21.5996V23.3333H23.3996V21.6666Z" fill="#F5B700"/>
<path d="M23.3996 20.0001H21.5996V21.6668H23.3996V20.0001Z" fill="#EAEAEA"/>
<path d="M23.3996 18.3333H21.5996V19.9999H23.3996V18.3333Z" fill="#EAEAEA"/>
<path d="M23.3996 16.6667H21.5996V18.3334H23.3996V16.6667Z" fill="#EAEAEA"/>
<path d="M23.3996 15H21.5996V16.6667H23.3996V15Z" fill="#F5B700"/>
<path d="M23.3996 13.3334H21.5996V15H23.3996V13.3334Z" fill="#F5B700"/>
<path d="M23.3996 11.6666H21.5996V13.3333H23.3996V11.6666Z" fill="#F5B700"/>
<path d="M23.3996 10H21.5996V11.6667H23.3996V10Z" fill="#F5B700"/>
<path d="M23.3996 8.33325H21.5996V9.99992H23.3996V8.33325Z" fill="#F5B700"/>
<path d="M23.3996 6.66675H21.5996V8.33342H23.3996V6.66675Z" fill="#F5B700"/>
<path d="M23.3996 4.99988H21.5996V6.66655H23.3996V4.99988Z" fill="#F5B700"/>
<path d="M23.3996 3.33337H21.5996V5.00004H23.3996V3.33337Z" fill="#0F0F12"/>
<path d="M21.6003 25H19.8003V26.6667H21.6003V25Z" fill="#EAEAEA"/>
<path d="M21.6003 23.3334H19.8003V25H21.6003V23.3334Z" fill="#EAEAEA"/>
<path d="M21.6003 21.6666H19.8003V23.3333H21.6003V21.6666Z" fill="#EAEAEA"/>
<path d="M21.6003 20.0001H19.8003V21.6668H21.6003V20.0001Z" fill="#EAEAEA"/>
<path d="M21.6003 18.3333H19.8003V19.9999H21.6003V18.3333Z" fill="#EAEAEA"/>
<path d="M21.6003 16.6667H19.8003V18.3334H21.6003V16.6667Z" fill="#EAEAEA"/>
<path d="M21.6003 15H19.8003V16.6667H21.6003V15Z" fill="#EAEAEA"/>
<path d="M21.6003 13.3334H19.8003V15H21.6003V13.3334Z" fill="#EAEAEA"/>
<path d="M21.6003 11.6666H19.8003V13.3333H21.6003V11.6666Z" fill="#F5B700"/>
<path d="M21.6003 10H19.8003V11.6667H21.6003V10Z" fill="#F5B700"/>
<path d="M21.6003 8.33325H19.8003V9.99992H21.6003V8.33325Z" fill="#F5B700"/>
<path d="M21.6003 6.66675H19.8003V8.33342H21.6003V6.66675Z" fill="#9B8500"/>
<path d="M21.6003 4.99988H19.8003V6.66655H21.6003V4.99988Z" fill="#9B8500"/>
<path d="M21.6003 3.33337H19.8003V5.00004H21.6003V3.33337Z" fill="#0F0F12"/>
<path d="M19.8 25H18V26.6667H19.8V25Z" fill="#EAEAEA"/>
<path d="M19.8 23.3334H18V25H19.8V23.3334Z" fill="#EAEAEA"/>
<path d="M19.8 21.6666H18V23.3333H19.8V21.6666Z" fill="#EAEAEA"/>
<path d="M19.8 20.0001H18V21.6668H19.8V20.0001Z" fill="#EAEAEA"/>
<path d="M19.8 18.3333H18V19.9999H19.8V18.3333Z" fill="#EAEAEA"/>
<path d="M19.8 16.6667H18V18.3334H19.8V16.6667Z" fill="#EAEAEA"/>
<path d="M19.8 15H18V16.6667H19.8V15Z" fill="#EAEAEA"/>
<path d="M19.8 13.3334H18V15H19.8V13.3334Z" fill="#ED7793"/>
<path d="M19.8 11.6666H18V13.3333H19.8V11.6666Z" fill="#F5B700"/>
<path d="M19.8 10H18V11.6667H19.8V10Z" fill="#F5B700"/>
<path d="M19.8 8.33325H18V9.99992H19.8V8.33325Z" fill="#F5B700"/>
<path d="M19.8 6.66675H18V8.33342H19.8V6.66675Z" fill="#F5B700"/>
<path d="M19.8 4.99988H18V6.66655H19.8V4.99988Z" fill="#F5B700"/>
<path d="M19.8 3.33337H18V5.00004H19.8V3.33337Z" fill="#0F0F12"/>
<path d="M17.9992 25H16.1992V26.6667H17.9992V25Z" fill="#EAEAEA"/>
<path d="M17.9992 23.3334H16.1992V25H17.9992V23.3334Z" fill="#EAEAEA"/>
<path d="M17.9992 21.6666H16.1992V23.3333H17.9992V21.6666Z" fill="#EAEAEA"/>
<path d="M17.9992 20.0001H16.1992V21.6668H17.9992V20.0001Z" fill="#EAEAEA"/>
<path d="M17.9992 18.3333H16.1992V19.9999H17.9992V18.3333Z" fill="#EAEAEA"/>
<path d="M17.9992 16.6667H16.1992V18.3334H17.9992V16.6667Z" fill="#EAEAEA"/>
<path d="M17.9992 15H16.1992V16.6667H17.9992V15Z" fill="#EAEAEA"/>
<path d="M17.9992 13.3334H16.1992V15H17.9992V13.3334Z" fill="#ED7793"/>
<path d="M17.9992 11.6666H16.1992V13.3333H17.9992V11.6666Z" fill="#F5B700"/>
<path d="M17.9992 10H16.1992V11.6667H17.9992V10Z" fill="#F5B700"/>
<path d="M17.9992 8.33325H16.1992V9.99992H17.9992V8.33325Z" fill="#F5B700"/>
<path d="M17.9992 6.66675H16.1992V8.33342H17.9992V6.66675Z" fill="#F5B700"/>
<path d="M17.9992 4.99988H16.1992V6.66655H17.9992V4.99988Z" fill="#F5B700"/>
<path d="M17.9992 3.33337H16.1992V5.00004H17.9992V3.33337Z" fill="#0F0F12"/>
<path d="M16.1999 25H14.3999V26.6667H16.1999V25Z" fill="#EAEAEA"/>
<path d="M16.1999 23.3334H14.3999V25H16.1999V23.3334Z" fill="#EAEAEA"/>
<path d="M16.1999 21.6666H14.3999V23.3333H16.1999V21.6666Z" fill="#EAEAEA"/>
<path d="M16.1999 20.0001H14.3999V21.6668H16.1999V20.0001Z" fill="#EAEAEA"/>
<path d="M16.1999 18.3333H14.3999V19.9999H16.1999V18.3333Z" fill="#EAEAEA"/>
<path d="M16.1999 16.6667H14.3999V18.3334H16.1999V16.6667Z" fill="#EAEAEA"/>
<path d="M16.1999 15H14.3999V16.6667H16.1999V15Z" fill="#EAEAEA"/>
<path d="M16.1999 13.3334H14.3999V15H16.1999V13.3334Z" fill="#EAEAEA"/>
<path d="M16.1999 11.6666H14.3999V13.3333H16.1999V11.6666Z" fill="#F5B700"/>
<path d="M16.1999 10H14.3999V11.6667H16.1999V10Z" fill="#F5B700"/>
<path d="M16.1999 8.33325H14.3999V9.99992H16.1999V8.33325Z" fill="#F5B700"/>
<path d="M16.1999 6.66675H14.3999V8.33342H16.1999V6.66675Z" fill="#9B8500"/>
<path d="M16.1999 4.99988H14.3999V6.66655H16.1999V4.99988Z" fill="#9B8500"/>
<path d="M16.1999 3.33337H14.3999V5.00004H16.1999V3.33337Z" fill="#0F0F12"/>
<path d="M14.3996 25H12.5996V26.6667H14.3996V25Z" fill="#F5B700"/>
<path d="M14.3996 23.3334H12.5996V25H14.3996V23.3334Z" fill="#F5B700"/>
<path d="M14.3996 21.6666H12.5996V23.3333H14.3996V21.6666Z" fill="#F5B700"/>
<path d="M14.3996 20.0001H12.5996V21.6668H14.3996V20.0001Z" fill="#EAEAEA"/>
<path d="M14.3996 18.3333H12.5996V19.9999H14.3996V18.3333Z" fill="#EAEAEA"/>
<path d="M14.3996 16.6667H12.5996V18.3334H14.3996V16.6667Z" fill="#EAEAEA"/>
<path d="M14.3996 15H12.5996V16.6667H14.3996V15Z" fill="#F5B700"/>
<path d="M14.3996 13.3334H12.5996V15H14.3996V13.3334Z" fill="#F5B700"/>
<path d="M14.3996 11.6666H12.5996V13.3333H14.3996V11.6666Z" fill="#F5B700"/>
<path d="M14.3996 10H12.5996V11.6667H14.3996V10Z" fill="#F5B700"/>
<path d="M14.3996 8.33325H12.5996V9.99992H14.3996V8.33325Z" fill="#F5B700"/>
<path d="M14.3996 6.66675H12.5996V8.33342H14.3996V6.66675Z" fill="#F5B700"/>
<path d="M14.3996 4.99988H12.5996V6.66655H14.3996V4.99988Z" fill="#F5B700"/>
<path d="M14.3996 3.33337H12.5996V5.00004H14.3996V3.33337Z" fill="#0F0F12"/>
<path d="M12.5998 25H10.7998V26.6667H12.5998V25Z" fill="#F5B700"/>
<path d="M12.5998 23.3334H10.7998V25H12.5998V23.3334Z" fill="#F5B700"/>
<path d="M12.5998 21.6666H10.7998V23.3333H12.5998V21.6666Z" fill="#0F0F12"/>
<path d="M12.5998 20.0001H10.7998V21.6668H12.5998V20.0001Z" fill="#EAEAEA"/>
<path d="M12.5998 18.3333H10.7998V19.9999H12.5998V18.3333Z" fill="#EAEAEA"/>
<path d="M12.5998 16.6667H10.7998V18.3334H12.5998V16.6667Z" fill="#EAEAEA"/>
<path d="M12.5998 15H10.7998V16.6667H12.5998V15Z" fill="#F5B700"/>
<path d="M12.5998 13.3334H10.7998V15H12.5998V13.3334Z" fill="#0F0F12"/>
<path d="M12.5998 11.6666H10.7998V13.3333H12.5998V11.6666Z" fill="#EAEAEA"/>
<path d="M12.5998 10H10.7998V11.6667H12.5998V10Z" fill="#F5B700"/>
<path d="M12.5998 8.33325H10.7998V9.99992H12.5998V8.33325Z" fill="#9B8500"/>
<path d="M12.5998 6.66675H10.7998V8.33342H12.5998V6.66675Z" fill="#9B8500"/>
<path d="M12.5998 4.99988H10.7998V6.66655H12.5998V4.99988Z" fill="#9B8500"/>
<path d="M12.5998 3.33337H10.7998V5.00004H12.5998V3.33337Z" fill="#0F0F12"/>
<path d="M10.7995 25H8.99951V26.6667H10.7995V25Z" fill="#F5B700"/>
<path d="M10.7995 23.3334H8.99951V25H10.7995V23.3334Z" fill="#0F0F12"/>
<path d="M10.7995 21.6666H8.99951V23.3333H10.7995V21.6666Z" fill="#0F0F12"/>
<path d="M10.7995 20.0001H8.99951V21.6668H10.7995V20.0001Z" fill="#EAEAEA"/>
<path d="M10.7995 18.3333H8.99951V19.9999H10.7995V18.3333Z" fill="#EAEAEA"/>
<path d="M10.7995 16.6667H8.99951V18.3334H10.7995V16.6667Z" fill="#EAEAEA"/>
<path d="M10.7995 15H8.99951V16.6667H10.7995V15Z" fill="#F5B700"/>
<path d="M10.7995 13.3334H8.99951V15H10.7995V13.3334Z" fill="#0F0F12"/>
<path d="M10.7995 11.6666H8.99951V13.3333H10.7995V11.6666Z" fill="#0F0F12"/>
<path d="M10.7995 10H8.99951V11.6667H10.7995V10Z" fill="#F5B700"/>
<path d="M10.7995 8.33325H8.99951V9.99992H10.7995V8.33325Z" fill="#F5B700"/>
<path d="M10.7995 6.66675H8.99951V8.33342H10.7995V6.66675Z" fill="#F5B700"/>
<path d="M10.7995 4.99988H8.99951V6.66655H10.7995V4.99988Z" fill="#F5B700"/>
<path d="M10.7995 3.33337H8.99951V5.00004H10.7995V3.33337Z" fill="#0F0F12"/>
<path d="M9.00021 25H7.2002V26.6667H9.00021V25Z" fill="#0F0F12"/>
<path d="M28.8 26.6667H27V28.3334H28.8V26.6667Z" fill="#0F0F12"/>
<path d="M25.1999 26.6667H23.3999V28.3334H25.1999V26.6667Z" fill="#0F0F12"/>
<path d="M26.9997 26.6667H25.1997V28.3334H26.9997V26.6667Z" fill="#0F0F12"/>
<path d="M23.3996 26.6667H21.5996V28.3334H23.3996V26.6667Z" fill="#0F0F12"/>
<path d="M21.6003 26.6667H19.8003V28.3334H21.6003V26.6667Z" fill="#EAEAEA"/>
<path d="M19.8 26.6667H18V28.3334H19.8V26.6667Z" fill="#EAEAEA"/>
<path d="M17.9992 26.6667H16.1992V28.3334H17.9992V26.6667Z" fill="#EAEAEA"/>
<path d="M16.1999 26.6667H14.3999V28.3334H16.1999V26.6667Z" fill="#EAEAEA"/>
<path d="M14.3996 26.6667H12.5996V28.3334H14.3996V26.6667Z" fill="#0F0F12"/>
<path d="M12.5998 26.6667H10.7998V28.3334H12.5998V26.6667Z" fill="#0F0F12"/>
<path d="M10.7995 26.6667H8.99951V28.3334H10.7995V26.6667Z" fill="#0F0F12"/>
<path d="M9.00021 26.6667H7.2002V28.3334H9.00021V26.6667Z" fill="#0F0F12"/>
<path d="M25.1999 28.3334H23.3999V30H25.1999V28.3334Z" fill="#F6BB0F"/>
<path d="M26.9997 28.3334H25.1997V30H26.9997V28.3334Z" fill="#F6BB0F"/>
<path d="M21.6003 28.3334H19.8003V30H21.6003V28.3334Z" fill="#F6BB0F"/>
<path d="M19.8 28.3334H18V30H19.8V28.3334Z" fill="#F6BB0F"/>
<path d="M17.9992 28.3334H16.1992V30H17.9992V28.3334Z" fill="#F6BB0F"/>
<path d="M16.1999 28.3334H14.3999V30H16.1999V28.3334Z" fill="#F6BB0F"/>
<path d="M12.5998 28.3334H10.7998V30H12.5998V28.3334Z" fill="#F6BB0F"/>
<path d="M10.7995 28.3334H8.99951V30H10.7995V28.3334Z" fill="#F6BB0F"/>
<path d="M9.00021 21.6666H7.2002V23.3333H9.00021V21.6666Z" fill="#0F0F12"/>
<path d="M9.00021 20.0001H7.2002V21.6668H9.00021V20.0001Z" fill="#EAEAEA"/>
<path d="M9.00021 18.3333H7.2002V19.9999H9.00021V18.3333Z" fill="#EAEAEA"/>
<path d="M9.00021 16.6667H7.2002V18.3334H9.00021V16.6667Z" fill="#F5B700"/>
<path d="M9.00021 15H7.2002V16.6667H9.00021V15Z" fill="#F5B700"/>
<path d="M9.00021 13.3334H7.2002V15H9.00021V13.3334Z" fill="#F5B700"/>
<path d="M9.00021 11.6666H7.2002V13.3333H9.00021V11.6666Z" fill="#F5B700"/>
<path d="M9.00021 10H7.2002V11.6667H9.00021V10Z" fill="#F5B700"/>
<path d="M9.00021 8.33325H7.2002V9.99992H9.00021V8.33325Z" fill="#F5B700"/>
<path d="M9.00021 6.66675H7.2002V8.33342H9.00021V6.66675Z" fill="#F5B700"/>
<path d="M9.00021 4.99988H7.2002V6.66655H9.00021V4.99988Z" fill="#0F0F12"/>
<path d="M9.00021 3.33337H7.2002V5.00004H9.00021V3.33337Z" fill="#0F0F12"/>
<path d="M7.19943 20.0001H5.39941V21.6668H7.19943V20.0001Z" fill="#0F0F12"/>
<path d="M7.19943 18.3333H5.39941V19.9999H7.19943V18.3333Z" fill="#F5B700"/>
<path d="M7.19943 16.6667H5.39941V18.3334H7.19943V16.6667Z" fill="#9B8500"/>
<path d="M7.19943 15H5.39941V16.6667H7.19943V15Z" fill="#F5B700"/>
<path d="M7.19943 13.3334H5.39941V15H7.19943V13.3334Z" fill="#9B8500"/>
<path d="M7.19943 11.6666H5.39941V13.3333H7.19943V11.6666Z" fill="#F5B700"/>
<path d="M7.19943 10H5.39941V11.6667H7.19943V10Z" fill="#F5B700"/>
<path d="M7.19943 8.33325H5.39941V9.99992H7.19943V8.33325Z" fill="#F5B700"/>
<path d="M7.19943 6.66675H5.39941V8.33342H7.19943V6.66675Z" fill="#0F0F12"/>
<path d="M7.19943 4.99988H5.39941V6.66655H7.19943V4.99988Z" fill="#EAEAEA"/>
<path d="M7.19943 3.33337H5.39941V5.00004H7.19943V3.33337Z" fill="#EAEAEA"/>
<path d="M7.19943 1.66663H5.39941V3.33329H7.19943V1.66663Z" fill="#0F0F12"/>
<path d="M5.40011 18.3333H3.6001V19.9999H5.40011V18.3333Z" fill="#0F0F12"/>
<path d="M5.40011 16.6667H3.6001V18.3334H5.40011V16.6667Z" fill="#9B8500"/>
<path d="M5.40011 15H3.6001V16.6667H5.40011V15Z" fill="#F5B700"/>
<path d="M5.40011 13.3334H3.6001V15H5.40011V13.3334Z" fill="#9B8500"/>
<path d="M5.40011 11.6666H3.6001V13.3333H5.40011V11.6666Z" fill="#0F0F12"/>
<path d="M5.40011 10H3.6001V11.6667H5.40011V10Z" fill="#0F0F12"/>
<path d="M5.40011 8.33325H3.6001V9.99992H5.40011V8.33325Z" fill="#0F0F12"/>
<path d="M5.40011 6.66675H3.6001V8.33342H5.40011V6.66675Z" fill="#EAEAEA"/>
<path d="M5.40011 4.99988H3.6001V6.66655H5.40011V4.99988Z" fill="#EAEAEA"/>
<path d="M5.40011 3.33337H3.6001V5.00004H5.40011V3.33337Z" fill="#EAEAEA"/>
<path d="M5.40011 1.66663H3.6001V3.33329H5.40011V1.66663Z" fill="#EAEAEA"/>
<path d="M5.40011 0H3.6001V1.66667H5.40011V0Z" fill="#0F0F12"/>
<path d="M3.59933 16.6667H1.79932V18.3334H3.59933V16.6667Z" fill="#0F0F12"/>
<path d="M3.59933 15H1.79932V16.6667H3.59933V15Z" fill="#0F0F12"/>
<path d="M3.59933 13.3334H1.79932V15H3.59933V13.3334Z" fill="#0F0F12"/>
<path d="M3.59933 8.33325H1.79932V9.99992H3.59933V8.33325Z" fill="#0F0F12"/>
<path d="M3.59933 6.66675H1.79932V8.33342H3.59933V6.66675Z" fill="#0F0F12"/>
<path d="M3.59933 4.99988H1.79932V6.66655H3.59933V4.99988Z" fill="#0F0F12"/>
<path d="M3.59933 3.33337H1.79932V5.00004H3.59933V3.33337Z" fill="#0F0F12"/>
<path d="M3.59933 1.66663H1.79932V3.33329H3.59933V1.66663Z" fill="#0F0F12"/>
<path d="M1.80001 18.3333H0V19.9999H1.80001V18.3333Z" fill="#0F0F12"/>
<path d="M1.80001 11.6666H0V13.3333H1.80001V11.6666Z" fill="#0F0F12"/>
</svg>
