<svg width="32" height="32" viewBox="0 0 32 32" fill="none" xmlns="http://www.w3.org/2000/svg">
<path d="M26.374 32H5.62598V29.0107H26.374V32ZM5.62598 29.0107H2.98926V26.374H5.62598V29.0107ZM29.0107 29.0107H26.374V26.374H29.0107V29.0107ZM2.98926 26.374H0V5.62598H2.98926V26.374ZM32 26.374H29.0107V5.62598H32V26.374ZM19.5166 22.5059H12.4834V19.5166H19.5166V22.5059ZM12.4834 19.5166H9.49414V12.4834H12.4834V19.5166ZM22.5059 19.5166H19.5166V12.4834H22.5059V19.5166ZM19.5166 12.4834H12.4834V9.49414H19.5166V12.4834ZM25.1426 9.8457H22.5059V7.20898H25.1426V9.8457ZM5.62598 5.62598H2.98926V2.98926H5.62598V5.62598ZM29.0107 5.62598H26.374V2.98926H29.0107V5.62598ZM26.374 2.98926H5.62598V0H26.374V2.98926Z" fill="#EAEAEA"/>
</svg>
